<?xml version="1.0" encoding="utf-8"?>
<!-- Generator: Adobe Illustrator 27.5.0, SVG Export Plug-In . SVG Version: 6.00 Build 0)  -->
<svg version="1.1" xmlns="http://www.w3.org/2000/svg" xmlns:xlink="http://www.w3.org/1999/xlink" x="0px" y="0px"
	 viewBox="0 0 500 500" style="enable-background:new 0 0 500 500;" xml:space="preserve">
<g id="BACKGROUND">
	<rect style="fill:#A3BFFF;" width="500" height="500"/>
</g>
<g id="OBJECTS">
	<g>
		<g>
			<rect x="357.118" y="172.007" style="fill:#A06040;" width="14.932" height="244.897"/>
			
				<ellipse transform="matrix(0.9239 -0.3827 0.3827 0.9239 -35.376 152.0776)" style="fill:#895538;" cx="364.584" cy="164.962" rx="12.019" ry="12.019"/>
			<circle style="fill:#A06040;" cx="364.584" cy="164.962" r="6.741"/>
		</g>
		<g>
			<rect x="131.43" y="172.007" style="fill:#A06040;" width="14.932" height="244.897"/>
			
				<ellipse transform="matrix(0.9227 -0.3855 0.3855 0.9227 -52.8579 66.2956)" style="fill:#895538;" cx="138.896" cy="164.962" rx="12.019" ry="12.019"/>
			<circle style="fill:#A06040;" cx="138.896" cy="164.962" r="6.741"/>
		</g>
		<path style="fill:#895538;" d="M357.118,409.467H146.236V181.122c0-43.396,35.179-78.575,78.575-78.575h53.733
			c43.396,0,78.575,35.179,78.575,78.575V409.467z"/>
		<path style="fill:#B24242;" d="M344.006,390.383H159.349V190.435c0-37.999,30.804-68.803,68.803-68.803h47.051
			c37.999,0,68.803,30.804,68.803,68.803V390.383z"/>
		<path style="fill:#484848;" d="M290.808,409.467h-78.262c-11.629,0-21.143-9.514-21.143-21.143V273.65
			c0-11.629,9.514-21.143,21.143-21.143h78.262c11.629,0,21.143,9.514,21.143,21.143v114.674
			C311.952,399.952,302.437,409.467,290.808,409.467z"/>
		<path style="fill:#484848;" d="M294.774,253.664c0,0,46.013,0.743,56.458,48.198c10.445,47.455,16.776,86.819,16.776,86.819
			H311.35c0,0-3.059-42.528-2.449-60.804C309.509,309.6,294.774,253.664,294.774,253.664z"/>
		<path style="fill:#3D3D3D;" d="M293.999,409.467h-84.643c-9.874,0-17.953-8.079-17.953-17.953v-89.729l58.496-7.362l62.053,7.362
			v89.73C311.952,401.388,303.873,409.467,293.999,409.467z"/>
		<path style="fill:#EDE9E4;" d="M222.051,257.804l0.486-0.486c16.094-16.094,42.187-16.094,58.28,0l0.487,0.486l-29.627,32.612
			L222.051,257.804z"/>
		<g>
			<path style="fill:#EEBF99;" d="M250.768,266.698L250.768,266.698c-8.518,0-15.487-6.969-15.487-15.487v-10.739
				c0-8.518,6.969-15.487,15.487-15.487l0,0c8.518,0,15.487,6.969,15.487,15.487v10.739
				C266.255,259.729,259.286,266.698,250.768,266.698z"/>
			<path style="fill:#EEBF99;" d="M184.024,183.121c-0.667-33.195,29.473-60.729,67.306-61.489
				c37.844-0.761,69.061,25.536,69.731,58.731c0.666,33.201-29.466,60.731-67.31,61.495
				C215.913,242.617,184.696,216.321,184.024,183.121z"/>
			<path style="opacity:0.17;fill:#1E0909;" d="M320.019,170.907c-5.755-28.591-34.521-49.963-68.689-49.276
				c-37.832,0.761-67.973,28.295-67.306,61.489c0.062,3.046,0.383,6.031,0.939,8.943c2.412-10.291,4.841-18.97,7.504-26.285
				c1.736-4.542,15.522-36.564,59.456-36.564c40.016,0,55.034,23.676,58.708,30.961c0.332,0.703,0.653,1.405,0.961,2.107v0.001
				c6.949,15.783,8.065,30.994,8.065,30.994s0.063-0.081,0.155-0.334c0.195-0.891,0.37-1.789,0.521-2.692
				C320.659,187.321,320.826,181.663,320.019,170.907z"/>
			<path style="opacity:0.17;fill:#1E0909;" d="M253.613,235.009c-36.523,0.738-66.792-23.758-69.458-55.313
				c-0.052,1.139-0.148,2.269-0.13,3.424c0.672,33.2,31.888,59.496,69.727,58.736c37.844-0.763,67.976-28.293,67.31-61.495
				c-0.029-1.152-0.171-2.274-0.264-3.415C319.402,208.587,290.136,234.276,253.613,235.009z"/>
			<path style="fill:#472218;" d="M243.406,169.413c0.278,6.862-3.139,12.577-7.619,12.756c-4.491,0.192-8.356-5.234-8.628-12.094
				c-0.288-6.863,3.123-12.573,7.616-12.756C239.254,157.137,243.122,162.545,243.406,169.413z"/>
			<path style="fill:#472218;" d="M280.605,168.665c0.28,6.861-3.133,12.576-7.617,12.754c-4.486,0.192-8.361-5.233-8.631-12.093
				c-0.28-6.865,3.135-12.574,7.618-12.756C276.455,156.387,280.326,161.798,280.605,168.665z"/>
			<path style="fill:#B7B3AC;" d="M215.324,153.963l4.93,3.519c0,0,9.114-11.091,18.282-11.275
				C238.536,146.208,224.088,139.543,215.324,153.963z"/>
			<path style="fill:#B7B3AC;" d="M289.764,152.463l-4.79,3.718c0,0-9.55-10.713-18.72-10.531
				C266.255,145.649,280.423,138.408,289.764,152.463z"/>
			<path style="fill:#E49494;" d="M262.865,184.27c0,4.901-3.97,8.873-8.87,8.873l0,0c-4.904,0-8.878-3.972-8.878-8.873v-28.355
				c0-4.902,3.974-8.876,8.878-8.876l0,0c4.9,0,8.87,3.974,8.87,8.876V184.27z"/>
			<path style="opacity:0.17;fill:#1E0909;" d="M253.994,188.75c-4.904,0-8.878-3.973-8.878-8.872v4.392
				c0,4.901,3.974,8.873,8.878,8.873c4.9,0,8.87-3.972,8.87-8.873v-4.392C262.865,184.777,258.895,188.75,253.994,188.75z"/>
			<g>
				<g>
					<path style="fill:#322F44;" d="M278.849,197.922c0,0-35.298,10.554-49.284-4.628c0,0-5.512,28.586,18.937,31.825
						C281.117,229.431,278.849,197.922,278.849,197.922z"/>
					<path style="fill:#E49494;" d="M241.005,207.102l8.73,10.126c-7.979-9.285-16.676-12.164-20.483-13.018
						c0.895,8.445,4.947,19.012,19.249,20.908c7.587,1.004,13.283,0.077,17.56-1.946
						C256.186,209.294,241.005,207.102,241.005,207.102z"/>
					<path style="fill:#FFFFFF;" d="M232.602,195.962c6.563,6.386,23.086,18.014,45.412,2.199
						C273.021,199.516,246.563,206.036,232.602,195.962z"/>
				</g>
			</g>
			<g>
				<path style="fill:#EEBF99;" d="M167.008,176.043c-0.191-9.614,6.566-17.542,15.087-17.711
					c8.529-0.169,15.596,7.479,15.789,17.091c0.196,9.616-6.561,17.547-15.086,17.715
					C174.272,193.31,167.202,185.659,167.008,176.043z"/>
				
					<linearGradient id="SVGID_1_" gradientUnits="userSpaceOnUse" x1="1505.3687" y1="167.9417" x2="1524.6327" y2="167.9417" gradientTransform="matrix(0.9998 -0.0201 0.0201 0.9998 -1335.6251 38.2783)">
					<stop  offset="0" style="stop-color:#FFFFFF"/>
					<stop  offset="0.2303" style="stop-color:#C7B9B9"/>
					<stop  offset="0.5092" style="stop-color:#886B6B"/>
					<stop  offset="0.7396" style="stop-color:#593131"/>
					<stop  offset="0.9093" style="stop-color:#3D0D0D"/>
					<stop  offset="1" style="stop-color:#320000"/>
				</linearGradient>
				<path style="opacity:0.17;fill:url(#SVGID_1_);" d="M172.818,175.926c-0.119-5.995,4.096-10.938,9.411-11.046
					c5.317-0.105,9.729,4.664,9.85,10.661c0.12,5.993-4.093,10.942-9.41,11.047C177.35,186.697,172.939,181.923,172.818,175.926z"/>
			</g>
			<g>
				<path style="fill:#EEBF99;" d="M336.346,172.636c-0.192-9.613-7.259-17.264-15.783-17.091
					c-8.529,0.171-15.283,8.098-15.093,17.714c0.196,9.613,7.263,17.268,15.792,17.096
					C329.787,190.18,336.539,182.252,336.346,172.636z"/>
				
					<linearGradient id="SVGID_00000160168013251203504430000007282466813528794525_" gradientUnits="userSpaceOnUse" x1="-1118.1105" y1="168.2607" x2="-1098.8451" y2="168.2607" gradientTransform="matrix(-0.9998 0.0201 0.0201 0.9998 -790.7279 27.0028)">
					<stop  offset="0" style="stop-color:#FFFFFF"/>
					<stop  offset="0.2303" style="stop-color:#C7B9B9"/>
					<stop  offset="0.5092" style="stop-color:#886B6B"/>
					<stop  offset="0.7396" style="stop-color:#593131"/>
					<stop  offset="0.9093" style="stop-color:#3D0D0D"/>
					<stop  offset="1" style="stop-color:#320000"/>
				</linearGradient>
				<path style="opacity:0.17;fill:url(#SVGID_00000160168013251203504430000007282466813528794525_);" d="M330.541,172.755
					c-0.121-5.996-4.533-10.767-9.846-10.66c-5.315,0.108-9.534,5.053-9.415,11.048c0.125,5.993,4.533,10.765,9.852,10.661
					C326.445,183.697,330.661,178.752,330.541,172.755z"/>
			</g>
		</g>
		<g>
			<polygon style="fill:#932C2C;" points="251.677,272.625 245.982,284.147 251.677,290.416 257.372,284.147 			"/>
			<path style="fill:#C63030;" d="M260.916,271.658c-5.102-5.102-13.375-5.102-18.477,0l-0.616,0.616l9.854,9.854l9.854-9.854
				L260.916,271.658z"/>
			<path style="fill:#FFFFFF;" d="M222.051,257.804c0,0,5.445-6.387,14.14-9.545l15.487,18.439v2.751l-11.604,13.665
				L222.051,257.804z"/>
			<path style="fill:#FFFFFF;" d="M281.304,257.804c0,0-5.445-6.387-14.14-9.545l-15.487,18.439v2.751l11.604,13.665
				L281.304,257.804z"/>
		</g>
		<path style="fill:#484848;" d="M214.452,253.561c0,0-42.277-1.632-54.891,34.168c-8.291,23.53-14.791,0.906-18.272-17.366
			c-2.583-13.555-14.406-23.506-28.204-23.439c-7.519,0.036-16.308,1.446-25.804,5.567c-28.871,12.527-29.256,52.946-15.398,68.729
			c13.858,15.783,50.428,53.893,76.604,55.047c26.176,1.155,60.906-75.453,60.906-75.453L214.452,253.561z"/>
		<g>
			<g>
				<path style="fill:#DBD5C9;" d="M251.713,124.228V91.892c0,0-75.326-13.473-75.326,51.968c0,65.441,0,92.387,0,92.387
					s-0.385,12.887-20.883,16.26c0,0-4.204,34.168,24.7,34.168s23.298-43.499,23.298-43.499V143.09
					C203.502,143.09,210.786,124.613,251.713,124.228z"/>
				<path style="fill:#B7B3AC;" d="M195.645,136.123v100.086c0,0,5.606,43.499-23.298,43.499c-4.811,0-8.687-0.961-11.836-2.539
					c3.614,5.381,9.654,9.506,19.693,9.506c28.904,0,23.298-43.499,23.298-43.499V143.09c0,0,7.284-18.477,48.212-18.862v-7.282
					C211.785,117.731,195.645,136.123,195.645,136.123z"/>
				<g>
					<path style="fill:#EDE9E4;" d="M173.356,281.108l-0.453,0.153c-3.349,1.134-7.017-0.678-8.151-4.027l-9.62-26.719
						c-1.134-3.349,0.678-7.017,4.027-8.151l0.453-0.153c3.349-1.134,7.017,0.678,8.151,4.027l9.62,26.719
						C178.517,276.306,176.705,279.974,173.356,281.108z"/>
					<path style="fill:#FFFFFF;" d="M172.393,278.851l-0.326,0.111c-2.413,0.817-5.055-0.488-5.873-2.901l-9.67-26.488
						c-0.817-2.413,0.488-5.055,2.901-5.873l0.326-0.11c2.413-0.817,5.055,0.488,5.873,2.901l9.67,26.488
						C176.111,275.391,174.806,278.034,172.393,278.851z"/>
				</g>
				<g>
					<path style="fill:#EDE9E4;" d="M191.689,272.24l-0.388,0.28c-2.868,2.068-6.906,1.414-8.975-1.453l-17.732-27.241
						c-2.068-2.868-1.414-6.906,1.453-8.975l0.388-0.28c2.868-2.068,6.906-1.415,8.975,1.453l17.732,27.241
						C195.211,266.133,194.557,270.171,191.689,272.24z"/>
					<path style="fill:#FFFFFF;" d="M190.106,270.365l-0.279,0.201c-2.066,1.49-4.976,1.019-6.466-1.047l-17.712-27.005
						c-1.49-2.066-1.019-4.976,1.047-6.466l0.279-0.201c2.066-1.49,4.976-1.019,6.466,1.047l17.712,27.005
						C192.643,265.966,192.172,268.875,190.106,270.365z"/>
				</g>
				<g>
					<path style="fill:#EDE9E4;" d="M197.967,251.798l-0.36,0.314c-2.666,2.323-6.747,2.042-9.07-0.624l-17.524-19.917
						c-2.323-2.666-2.042-6.748,0.624-9.07l0.36-0.314c2.666-2.323,6.747-2.042,9.07,0.624l17.524,19.918
						C200.913,245.393,200.632,249.475,197.967,251.798z"/>
					<path style="fill:#FFFFFF;" d="M196.218,250.076l-0.26,0.226c-1.921,1.673-4.861,1.471-6.535-0.45l-17.482-19.685
						c-1.673-1.921-1.471-4.861,0.45-6.535l0.26-0.226c1.921-1.673,4.861-1.471,6.535,0.45l17.482,19.685
						C198.341,245.462,198.139,248.403,196.218,250.076z"/>
				</g>
				<g>
					<path style="fill:#EDE9E4;" d="M197.407,227.396l-0.279,0.388c-2.062,2.872-6.1,3.535-8.971,1.472l-16.778-12.048
						c-2.872-2.062-3.535-6.099-1.472-8.972l0.279-0.388c2.062-2.872,6.099-3.535,8.971-1.472l16.778,12.048
						C198.807,220.487,199.47,224.524,197.407,227.396z"/>
					<path style="fill:#FFFFFF;" d="M195.311,226.122l-0.201,0.28c-1.486,2.069-4.394,2.547-6.464,1.061l-16.684-11.831
						c-2.069-1.486-2.547-4.394-1.061-6.464l0.201-0.28c1.486-2.069,4.395-2.547,6.464-1.061l16.684,11.831
						C196.319,221.144,196.796,224.053,195.311,226.122z"/>
				</g>
				<g>
					<path style="fill:#EDE9E4;" d="M200.847,209.583l-0.16,0.451c-1.181,3.333-4.874,5.093-8.207,3.911l-19.469-6.901
						c-3.333-1.181-5.093-4.874-3.911-8.207l0.16-0.45c1.181-3.333,4.874-5.093,8.207-3.911l19.469,6.901
						C200.268,202.557,202.029,206.25,200.847,209.583z"/>
					<path style="fill:#FFFFFF;" d="M198.479,208.943l-0.115,0.325c-0.851,2.401-3.512,3.669-5.913,2.818l-19.318-6.719
						c-2.401-0.851-3.669-3.512-2.818-5.913l0.115-0.325c0.851-2.401,3.512-3.669,5.913-2.818l19.318,6.719
						C198.061,203.881,199.33,206.542,198.479,208.943z"/>
				</g>
				<g>
					<path style="fill:#EDE9E4;" d="M205.71,129.899l-0.16,0.45c-1.181,3.333-4.874,5.093-8.207,3.911l-19.469-6.901
						c-3.333-1.181-5.093-4.874-3.911-8.207l0.16-0.45c1.181-3.333,4.874-5.093,8.207-3.912l19.469,6.901
						C205.131,122.873,206.891,126.567,205.71,129.899z"/>
					<path style="fill:#FFFFFF;" d="M203.341,129.259l-0.115,0.324c-0.851,2.401-3.512,3.669-5.913,2.818l-19.318-6.719
						c-2.401-0.851-3.669-3.512-2.818-5.913l0.115-0.325c0.851-2.401,3.512-3.669,5.913-2.818l19.318,6.719
						C202.924,124.197,204.193,126.858,203.341,129.259z"/>
				</g>
				<g>
					<path style="fill:#EDE9E4;" d="M213.078,124.606l-0.28,0.387c-2.073,2.865-6.112,3.512-8.977,1.44l-16.734-12.109
						c-2.865-2.073-3.512-6.112-1.44-8.977l0.28-0.387c2.073-2.865,6.112-3.512,8.977-1.44l16.734,12.109
						C214.503,117.702,215.151,121.742,213.078,124.606z"/>
					<path style="fill:#FFFFFF;" d="M210.986,123.324l-0.202,0.279c-1.493,2.064-4.404,2.531-6.467,1.037l-16.641-11.891
						c-2.064-1.493-2.531-4.404-1.037-6.467l0.202-0.279c1.493-2.064,4.404-2.531,6.468-1.037l16.641,11.891
						C212.013,118.35,212.479,121.26,210.986,123.324z"/>
				</g>
				<g>
					<path style="fill:#EDE9E4;" d="M219.321,122.706l-0.396,0.267c-2.932,1.976-6.948,1.194-8.924-1.737l-11.546-17.128
						c-1.976-2.932-1.195-6.948,1.737-8.924l0.396-0.267c2.932-1.976,6.948-1.194,8.924,1.737l11.546,17.128
						C223.035,116.714,222.253,120.73,219.321,122.706z"/>
					<path style="fill:#FFFFFF;" d="M217.798,120.783l-0.285,0.192c-2.112,1.424-5.006,0.861-6.43-1.252l-11.533-16.892
						c-1.424-2.112-0.861-5.006,1.252-6.429l0.286-0.192c2.112-1.424,5.006-0.861,6.43,1.252l11.533,16.892
						C220.473,116.466,219.91,119.359,217.798,120.783z"/>
				</g>
				<g>
					<path style="fill:#EDE9E4;" d="M229.107,119.725l-0.445,0.175c-3.291,1.292-7.041-0.344-8.333-3.635l-7.548-19.227
						c-1.292-3.291,0.344-7.041,3.635-8.333l0.445-0.175c3.291-1.292,7.041,0.344,8.333,3.635l7.548,19.227
						C234.035,114.683,232.399,118.433,229.107,119.725z"/>
					<path style="fill:#FFFFFF;" d="M228.038,117.516l-0.32,0.126c-2.371,0.931-5.073-0.248-6.004-2.619l-7.587-18.994
						c-0.931-2.371,0.248-5.073,2.619-6.004l0.32-0.126c2.371-0.931,5.073,0.248,6.004,2.619l7.586,18.994
						C231.588,113.884,230.41,116.586,228.038,117.516z"/>
				</g>
				<g>
					<path style="fill:#EDE9E4;" d="M239.073,119.16l-0.475,0.056c-3.511,0.415-6.724-2.118-7.139-5.63l-2.424-20.513
						c-0.415-3.511,2.118-6.724,5.63-7.139l0.475-0.056c3.511-0.415,6.724,2.118,7.139,5.63l2.424,20.513
						C245.118,115.533,242.585,118.745,239.073,119.16z"/>
					<path style="fill:#FFFFFF;" d="M238.6,116.753l-0.342,0.04c-2.53,0.299-4.844-1.526-5.143-4.056l-2.521-20.297
						c-0.299-2.53,1.526-4.844,4.056-5.143l0.342-0.04c2.53-0.299,4.844,1.526,5.143,4.056l2.521,20.297
						C242.955,114.139,241.129,116.454,238.6,116.753z"/>
				</g>
				<g>
					<path style="fill:#EDE9E4;" d="M201.785,193.641l-0.054,0.475c-0.398,3.513-3.598,6.063-7.111,5.665l-20.525-2.324
						c-3.513-0.398-6.062-3.598-5.665-7.111l0.054-0.475c0.398-3.513,3.598-6.062,7.111-5.665l20.525,2.324
						C199.634,186.928,202.183,190.128,201.785,193.641z"/>
					<path style="fill:#FFFFFF;" d="M199.333,193.552l-0.039,0.342c-0.286,2.531-2.592,4.368-5.123,4.081l-20.337-2.18
						c-2.531-0.287-4.368-2.592-4.081-5.123l0.039-0.342c0.286-2.531,2.592-4.368,5.123-4.081l20.337,2.18
						C197.783,188.716,199.62,191.021,199.333,193.552z"/>
				</g>
				<g>
					<path style="fill:#EDE9E4;" d="M201.298,178.598l-0.017,0.478c-0.125,3.534-3.118,6.323-6.652,6.198l-20.643-0.729
						c-3.534-0.125-6.323-3.118-6.198-6.652l0.017-0.477c0.125-3.534,3.118-6.323,6.652-6.198l20.643,0.729
						C198.633,172.072,201.423,175.065,201.298,178.598z"/>
					<path style="fill:#FFFFFF;" d="M198.846,178.7l-0.012,0.344c-0.09,2.546-2.246,4.555-4.792,4.465l-20.445-0.601
						c-2.546-0.09-4.555-2.246-4.465-4.792l0.012-0.344c0.09-2.546,2.246-4.555,4.792-4.465l20.445,0.601
						C196.927,173.998,198.936,176.154,198.846,178.7z"/>
				</g>
				<g>
					<path style="fill:#EDE9E4;" d="M200.415,164.839l-0.006,0.478c-0.042,3.536-2.969,6.394-6.505,6.352l-20.654-0.245
						c-3.536-0.042-6.394-2.969-6.352-6.505l0.006-0.478c0.042-3.535,2.969-6.394,6.505-6.352l20.654,0.245
						C197.599,158.376,200.457,161.303,200.415,164.839z"/>
					<path style="fill:#FFFFFF;" d="M197.967,164.998l-0.004,0.344c-0.03,2.547-2.139,4.607-4.686,4.576l-20.453-0.122
						c-2.547-0.03-4.607-2.139-4.576-4.686l0.004-0.344c0.03-2.547,2.139-4.607,4.686-4.576l20.453,0.122
						C195.938,160.342,197.997,162.451,197.967,164.998z"/>
				</g>
				<g>
					<path style="fill:#EDE9E4;" d="M200.415,151.036l-0.006,0.478c-0.042,3.536-2.969,6.394-6.505,6.352l-20.654-0.245
						c-3.536-0.042-6.394-2.969-6.352-6.505l0.006-0.478c0.042-3.535,2.969-6.394,6.505-6.352l20.654,0.245
						C197.599,144.574,200.457,147.501,200.415,151.036z"/>
					<path style="fill:#FFFFFF;" d="M197.967,151.195l-0.004,0.344c-0.03,2.547-2.139,4.607-4.686,4.576l-20.453-0.121
						c-2.547-0.03-4.607-2.139-4.576-4.686l0.004-0.344c0.03-2.547,2.139-4.607,4.686-4.576l20.453,0.122
						C195.938,146.539,197.997,148.648,197.967,151.195z"/>
				</g>
				<g>
					<path style="fill:#EDE9E4;" d="M200.415,137.233l-0.006,0.478c-0.042,3.536-2.969,6.394-6.505,6.352l-20.654-0.245
						c-3.536-0.042-6.394-2.969-6.352-6.505l0.006-0.478c0.042-3.535,2.969-6.394,6.505-6.352l20.654,0.245
						C197.599,130.771,200.457,133.698,200.415,137.233z"/>
					<path style="fill:#FFFFFF;" d="M197.967,137.392l-0.004,0.344c-0.03,2.547-2.139,4.607-4.686,4.576l-20.453-0.121
						c-2.547-0.03-4.607-2.139-4.576-4.686l0.004-0.344c0.03-2.547,2.139-4.607,4.686-4.576l20.453,0.122
						C195.938,132.736,197.997,134.845,197.967,137.392z"/>
				</g>
			</g>
			<g>
				<path style="fill:#DBD5C9;" d="M251.641,124.228V91.892c0,0,75.326-13.473,75.326,51.968c0,65.441,0,92.387,0,92.387
					s0.385,12.887,20.883,16.26c0,0,4.203,34.168-24.7,34.168s-23.298-43.499-23.298-43.499V143.09
					C299.853,143.09,292.569,124.613,251.641,124.228z"/>
				<path style="fill:#B7B3AC;" d="M307.71,136.123v100.086c0,0-5.606,43.499,23.298,43.499c4.811,0,8.687-0.961,11.836-2.539
					c-3.614,5.381-9.654,9.506-19.693,9.506c-28.904,0-23.298-43.499-23.298-43.499V143.09c0,0-7.284-18.477-48.211-18.862v-7.282
					C291.569,117.731,307.71,136.123,307.71,136.123z"/>
				<g>
					<path style="fill:#EDE9E4;" d="M329.999,281.108l0.453,0.153c3.349,1.134,7.017-0.678,8.151-4.027l9.62-26.719
						c1.134-3.349-0.678-7.017-4.027-8.151l-0.453-0.153c-3.349-1.134-7.017,0.678-8.151,4.027l-9.62,26.719
						C324.838,276.306,326.65,279.974,329.999,281.108z"/>
					<path style="fill:#FFFFFF;" d="M330.961,278.851l0.326,0.111c2.413,0.817,5.055-0.488,5.873-2.901l9.67-26.488
						c0.817-2.413-0.488-5.055-2.901-5.873l-0.326-0.11c-2.413-0.817-5.056,0.488-5.873,2.901l-9.67,26.488
						C327.243,275.391,328.549,278.034,330.961,278.851z"/>
				</g>
				<g>
					<path style="fill:#EDE9E4;" d="M311.665,272.24l0.388,0.28c2.868,2.068,6.906,1.414,8.975-1.453l17.732-27.241
						c2.069-2.868,1.415-6.906-1.453-8.975l-0.388-0.28c-2.868-2.068-6.906-1.415-8.975,1.453l-17.732,27.241
						C308.144,266.133,308.797,270.171,311.665,272.24z"/>
					<path style="fill:#FFFFFF;" d="M313.249,270.365l0.279,0.201c2.066,1.49,4.976,1.019,6.466-1.047l17.712-27.005
						c1.49-2.066,1.019-4.976-1.047-6.466l-0.279-0.201c-2.066-1.49-4.976-1.019-6.466,1.047L312.202,263.9
						C310.712,265.966,311.183,268.875,313.249,270.365z"/>
				</g>
				<g>
					<path style="fill:#EDE9E4;" d="M305.388,251.798l0.36,0.314c2.666,2.323,6.747,2.042,9.07-0.624l17.524-19.917
						c2.323-2.666,2.042-6.748-0.624-9.07l-0.36-0.314c-2.666-2.323-6.747-2.042-9.07,0.624l-17.524,19.918
						C302.441,245.393,302.722,249.475,305.388,251.798z"/>
					<path style="fill:#FFFFFF;" d="M307.137,250.076l0.26,0.226c1.921,1.673,4.861,1.471,6.535-0.45l17.482-19.685
						c1.673-1.921,1.471-4.861-0.45-6.535l-0.26-0.226c-1.921-1.673-4.861-1.471-6.535,0.45l-17.482,19.685
						C305.014,245.462,305.216,248.403,307.137,250.076z"/>
				</g>
				<g>
					<path style="fill:#EDE9E4;" d="M305.947,227.396l0.279,0.388c2.062,2.872,6.099,3.535,8.971,1.472l16.778-12.048
						c2.872-2.062,3.535-6.099,1.472-8.972l-0.279-0.388c-2.062-2.872-6.099-3.535-8.971-1.472l-16.778,12.048
						C304.547,220.487,303.885,224.524,305.947,227.396z"/>
					<path style="fill:#FFFFFF;" d="M308.044,226.122l0.201,0.28c1.486,2.069,4.395,2.547,6.464,1.061l16.685-11.831
						c2.069-1.486,2.547-4.394,1.061-6.464l-0.201-0.28c-1.486-2.069-4.394-2.547-6.464-1.061l-16.684,11.831
						C307.035,221.144,306.558,224.053,308.044,226.122z"/>
				</g>
				<g>
					<path style="fill:#EDE9E4;" d="M302.507,209.583l0.16,0.451c1.181,3.333,4.874,5.093,8.207,3.911l19.469-6.901
						c3.333-1.181,5.093-4.874,3.911-8.207l-0.16-0.45c-1.181-3.333-4.875-5.093-8.207-3.911l-19.469,6.901
						C303.086,202.557,301.326,206.25,302.507,209.583z"/>
					<path style="fill:#FFFFFF;" d="M304.876,208.943l0.115,0.325c0.851,2.401,3.512,3.669,5.913,2.818l19.318-6.719
						c2.401-0.851,3.669-3.512,2.818-5.913l-0.115-0.325c-0.851-2.401-3.512-3.669-5.913-2.818l-19.318,6.719
						C305.293,203.881,304.025,206.542,304.876,208.943z"/>
				</g>
				<g>
					<path style="fill:#EDE9E4;" d="M297.644,129.899l0.16,0.45c1.181,3.333,4.875,5.093,8.207,3.911l19.469-6.901
						c3.333-1.181,5.093-4.874,3.911-8.207l-0.16-0.45c-1.181-3.333-4.875-5.093-8.207-3.912l-19.469,6.901
						C298.223,122.873,296.463,126.567,297.644,129.899z"/>
					<path style="fill:#FFFFFF;" d="M300.013,129.259l0.115,0.324c0.851,2.401,3.512,3.669,5.913,2.818l19.318-6.719
						c2.401-0.851,3.669-3.512,2.818-5.913l-0.115-0.325c-0.851-2.401-3.512-3.669-5.913-2.818l-19.318,6.719
						C300.43,124.197,299.162,126.858,300.013,129.259z"/>
				</g>
				<g>
					<path style="fill:#EDE9E4;" d="M290.276,124.606l0.28,0.387c2.073,2.865,6.112,3.512,8.977,1.44l16.734-12.109
						c2.865-2.073,3.512-6.112,1.44-8.977l-0.28-0.387c-2.073-2.865-6.112-3.512-8.977-1.44l-16.734,12.109
						C288.851,117.702,288.203,121.742,290.276,124.606z"/>
					<path style="fill:#FFFFFF;" d="M292.368,123.324l0.202,0.279c1.493,2.064,4.404,2.531,6.467,1.037l16.641-11.891
						c2.064-1.493,2.531-4.404,1.037-6.467l-0.202-0.279c-1.493-2.064-4.404-2.531-6.467-1.037l-16.641,11.891
						C291.342,118.35,290.875,121.26,292.368,123.324z"/>
				</g>
				<g>
					<path style="fill:#EDE9E4;" d="M284.033,122.706l0.396,0.267c2.932,1.976,6.948,1.194,8.924-1.737l11.546-17.128
						c1.976-2.932,1.194-6.948-1.737-8.924l-0.396-0.267c-2.932-1.976-6.948-1.194-8.924,1.737l-11.546,17.128
						C280.32,116.714,281.101,120.73,284.033,122.706z"/>
					<path style="fill:#FFFFFF;" d="M285.557,120.783l0.285,0.192c2.112,1.424,5.005,0.861,6.429-1.252l11.533-16.892
						c1.424-2.112,0.861-5.006-1.252-6.429l-0.286-0.192c-2.112-1.424-5.005-0.861-6.429,1.252l-11.533,16.892
						C282.881,116.466,283.444,119.359,285.557,120.783z"/>
				</g>
				<g>
					<path style="fill:#EDE9E4;" d="M274.247,119.725l0.445,0.175c3.291,1.292,7.041-0.344,8.333-3.635l7.548-19.227
						c1.292-3.291-0.344-7.041-3.635-8.333l-0.445-0.175c-3.291-1.292-7.041,0.344-8.333,3.635l-7.548,19.227
						C269.32,114.683,270.956,118.433,274.247,119.725z"/>
					<path style="fill:#FFFFFF;" d="M275.316,117.516l0.32,0.126c2.371,0.931,5.073-0.248,6.004-2.619l7.586-18.994
						c0.931-2.371-0.248-5.073-2.619-6.004l-0.32-0.126c-2.371-0.931-5.073,0.248-6.004,2.619l-7.587,18.994
						C271.766,113.884,272.945,116.586,275.316,117.516z"/>
				</g>
				<g>
					<path style="fill:#EDE9E4;" d="M264.281,119.16l0.475,0.056c3.511,0.415,6.724-2.118,7.139-5.63l2.424-20.513
						c0.415-3.511-2.118-6.724-5.63-7.139l-0.475-0.056c-3.511-0.415-6.724,2.118-7.139,5.63l-2.424,20.513
						C258.236,115.533,260.77,118.745,264.281,119.16z"/>
					<path style="fill:#FFFFFF;" d="M264.755,116.753l0.342,0.04c2.53,0.299,4.844-1.526,5.143-4.056l2.521-20.297
						c0.299-2.53-1.526-4.844-4.056-5.143l-0.342-0.04c-2.53-0.299-4.844,1.526-5.143,4.056l-2.521,20.297
						C260.4,114.139,262.225,116.454,264.755,116.753z"/>
				</g>
				<g>
					<path style="fill:#EDE9E4;" d="M301.569,193.641l0.054,0.475c0.398,3.513,3.598,6.063,7.111,5.665l20.525-2.324
						c3.513-0.398,6.063-3.598,5.665-7.111l-0.054-0.475c-0.398-3.513-3.598-6.062-7.111-5.665l-20.525,2.324
						C303.72,186.928,301.171,190.128,301.569,193.641z"/>
					<path style="fill:#FFFFFF;" d="M304.021,193.552l0.039,0.342c0.287,2.531,2.592,4.368,5.123,4.081l20.337-2.18
						c2.531-0.287,4.368-2.592,4.081-5.123l-0.039-0.342c-0.287-2.531-2.592-4.368-5.123-4.081l-20.337,2.18
						C305.571,188.716,303.735,191.021,304.021,193.552z"/>
				</g>
				<g>
					<path style="fill:#EDE9E4;" d="M302.057,178.598l0.017,0.478c0.125,3.534,3.118,6.323,6.652,6.198l20.643-0.729
						c3.534-0.125,6.323-3.118,6.198-6.652l-0.017-0.477c-0.125-3.534-3.118-6.323-6.652-6.198l-20.643,0.729
						C304.721,172.072,301.932,175.065,302.057,178.598z"/>
					<path style="fill:#FFFFFF;" d="M304.508,178.7l0.012,0.344c0.09,2.546,2.246,4.555,4.792,4.465l20.444-0.601
						c2.546-0.09,4.555-2.246,4.465-4.792l-0.012-0.344c-0.09-2.546-2.246-4.555-4.792-4.465l-20.445,0.601
						C306.428,173.998,304.418,176.154,304.508,178.7z"/>
				</g>
				<g>
					<path style="fill:#EDE9E4;" d="M302.939,164.839l0.006,0.478c0.042,3.536,2.969,6.394,6.505,6.352l20.654-0.245
						c3.535-0.042,6.394-2.969,6.352-6.505l-0.006-0.478c-0.042-3.535-2.969-6.394-6.505-6.352l-20.654,0.245
						C305.756,158.376,302.897,161.303,302.939,164.839z"/>
					<path style="fill:#FFFFFF;" d="M305.388,164.998l0.004,0.344c0.03,2.547,2.139,4.607,4.686,4.576l20.453-0.122
						c2.547-0.03,4.607-2.139,4.576-4.686l-0.004-0.344c-0.03-2.547-2.139-4.607-4.686-4.576l-20.453,0.122
						C307.417,160.342,305.357,162.451,305.388,164.998z"/>
				</g>
				<g>
					<path style="fill:#EDE9E4;" d="M302.939,151.036l0.006,0.478c0.042,3.536,2.969,6.394,6.505,6.352l20.654-0.245
						c3.535-0.042,6.394-2.969,6.352-6.505l-0.006-0.478c-0.042-3.535-2.969-6.394-6.505-6.352l-20.654,0.245
						C305.756,144.574,302.897,147.501,302.939,151.036z"/>
					<path style="fill:#FFFFFF;" d="M305.388,151.195l0.004,0.344c0.03,2.547,2.139,4.607,4.686,4.576l20.453-0.121
						c2.547-0.03,4.607-2.139,4.576-4.686l-0.004-0.344c-0.03-2.547-2.139-4.607-4.686-4.576l-20.453,0.122
						C307.417,146.539,305.357,148.648,305.388,151.195z"/>
				</g>
				<g>
					<path style="fill:#EDE9E4;" d="M302.939,137.233l0.006,0.478c0.042,3.536,2.969,6.394,6.505,6.352l20.654-0.245
						c3.535-0.042,6.394-2.969,6.352-6.505l-0.006-0.478c-0.042-3.535-2.969-6.394-6.505-6.352l-20.654,0.245
						C305.756,130.771,302.897,133.698,302.939,137.233z"/>
					<path style="fill:#FFFFFF;" d="M305.388,137.392l0.004,0.344c0.03,2.547,2.139,4.607,4.686,4.576l20.453-0.121
						c2.547-0.03,4.607-2.139,4.576-4.686l-0.004-0.344c-0.03-2.547-2.139-4.607-4.686-4.576l-20.453,0.122
						C307.417,132.736,305.357,134.845,305.388,137.392z"/>
				</g>
			</g>
			<g>
				<path style="fill:#EDE9E4;" d="M251.753,118.404l-0.478-0.006c-3.536-0.042-6.394-2.969-6.352-6.505l0.245-20.654
					c0.042-3.536,2.969-6.394,6.505-6.352l0.478,0.006c3.535,0.042,6.394,2.969,6.352,6.504l-0.245,20.654
					C258.216,115.588,255.289,118.446,251.753,118.404z"/>
				<path style="fill:#FFFFFF;" d="M251.594,115.956l-0.344-0.004c-2.547-0.03-4.607-2.139-4.576-4.686l0.122-20.453
					c0.03-2.547,2.139-4.607,4.686-4.576l0.344,0.004c2.547,0.03,4.607,2.139,4.576,4.686l-0.122,20.453
					C256.25,113.927,254.141,115.986,251.594,115.956z"/>
			</g>
		</g>
		
			<ellipse transform="matrix(0.6441 -0.7649 0.7649 0.6441 -180.327 178.1516)" style="fill:#DBD5C9;" cx="101.295" cy="282.872" rx="31.906" ry="25.306"/>
		<path style="fill:#DBD5C9;" d="M75.094,254.838c0,0,18.513-7.351,43.793-3.401C118.887,251.437,98.678,269.316,75.094,254.838z"/>
		
			<line style="fill:none;stroke:#EFC09A;stroke-width:27;stroke-linecap:round;stroke-miterlimit:10;" x1="97.874" y1="266.762" x2="93.952" y2="227.221"/>
		<path style="fill:#FFFFFF;" d="M100.392,296.93L100.392,296.93c-12.093,0.939-22.658-8.103-23.597-20.196l-1.701-21.896
			c3.775,1.673,11.767,4.61,22.151,3.843c10.582-0.782,18.164-5.005,21.642-7.244c0.567,7.299,1.134,14.598,1.701,21.896
			C121.527,285.426,112.485,295.991,100.392,296.93z"/>
		<path style="fill:#EEBF99;" d="M63.184,209.218c0.782,15.914,15.915,27.546,31.28,23.328c1.548-0.425,3.029-0.988,4.402-1.718
			c13.71-7.283,9.131-26.261,9.131-26.261s15.43-22.436-18.929-34.649c0,0-15.375-0.514-21.466,14.91
			C64.805,191.911,62.706,199.491,63.184,209.218z"/>
		<path style="fill:#EEBF99;" d="M101.39,158.913c0,0,4.432-2.631,9.435,0c0,0-3.695,6.118-0.532,14.391
			c3.163,8.273,2.128,22.885-2.297,31.263l-14.044-6.562L101.39,158.913z"/>
		<g>
			<path style="fill:#895538;" d="M87.883,246.245L87.883,246.245c-3.037-0.372-5.218-3.161-4.846-6.198l10.466-118.229
				c0.372-3.037,3.161-5.218,6.198-4.846l0,0c3.037,0.372,5.218,3.161,4.846,6.198L94.081,241.399
				C93.709,244.436,90.92,246.616,87.883,246.245z"/>
			<path style="fill:#75462F;" d="M123.587,140.361l-50.771-4.759c-3.536-0.331-6.159-3.496-5.827-7.033l2.815-30.038
				c0.331-3.536,3.496-6.159,7.032-5.827l50.771,4.758c3.536,0.332,6.159,3.496,5.827,7.033l-2.815,30.038
				C130.288,138.07,127.123,140.693,123.587,140.361z"/>
			
				<rect x="78.647" y="107.214" transform="matrix(0.0929 -0.9957 0.9957 0.0929 -25.141 205.4577)" style="fill:#A06040;" width="43.086" height="18.625"/>
			<path style="fill:#A06040;" d="M65.013,139.372L65.013,139.372c-1.973-0.185-3.436-1.95-3.251-3.923l4.185-44.648
				c0.185-1.973,1.95-3.436,3.923-3.251l0,0c1.973,0.185,3.436,1.95,3.251,3.923l-4.185,44.648
				C68.751,138.094,66.985,139.557,65.013,139.372z"/>
			<path style="fill:#A06040;" d="M130.624,146.05L130.624,146.05c-1.973-0.185-3.436-1.95-3.251-3.923l4.185-44.648
				c0.185-1.973,1.95-3.436,3.923-3.251l0,0c1.973,0.185,3.436,1.95,3.251,3.923l-4.185,44.648
				C134.363,144.772,132.597,146.235,130.624,146.05z"/>
		</g>
		<path style="fill:#EEBF99;" d="M73.653,220.612c0,0,7.732,1.912,17.046-1.339l4.429,10.379c0,0,11.387-6.689,10.509-41.66
			l-7.762-19.067c0,0-5.51,2.618-12.359,3.69L73.653,220.612z"/>
		<path style="opacity:0.17;fill:#1E0909;" d="M105.636,187.992c0,6.057-0.369,11.307-0.968,15.839l-6.413-21.846l-20.122,7.868
			l17.779-4.295l8.094,22.51c-0.8,4.425-1.819,8.026-2.879,10.941l-5.925-18.154l-17.068,3.967l15.289-1.002l6.822,17.448
			c-2.581,6.124-5.117,8.384-5.117,8.384l-4.429-10.379c-10.588,3.559-17.046,1.339-17.046,1.339
			c5.865,3.349,16.016,0.77,16.016,0.77l5.275,11.737C108.767,223.433,105.636,187.992,105.636,187.992z"/>
	</g>
	<g id="Capa_4">
	</g>
	<text transform="matrix(1 0 0 1 143.6839 51.9895)" style="fill:#FFFFFF; font-family:'Kreon-Regular'; font-size:33.8734px;">LAW &amp; JUSTICE</text>
	<g>
		<rect y="422.888" style="fill:#895538;" width="500" height="77.112"/>
		<rect y="379.333" style="fill:#AF7A4A;" width="500" height="43.555"/>
		<rect y="422.888" style="fill:#77472F;" width="500" height="10.734"/>
		<rect y="418.238" style="fill:#996C3F;" width="500" height="9.3"/>
		<rect y="441.025" style="fill:#A06040;" width="500" height="14.066"/>
	</g>
	<g>
		<ellipse style="fill:#77472F;" cx="134.203" cy="401.633" rx="41.291" ry="9.375"/>
		<rect x="92.912" y="396.088" style="fill:#77472F;" width="82.581" height="5.545"/>
		<ellipse style="fill:#A06040;" cx="134.203" cy="396.088" rx="41.291" ry="9.375"/>
		<g>
			<path style="fill:#C47D5F;" d="M121.774,405.03l31.536-17.252c-5.715-0.679-12.211-1.065-19.107-1.065
				c-3.688,0-7.26,0.111-10.662,0.317l-26.379,13.201C102.103,402.504,110.979,404.257,121.774,405.03z"/>
			<path style="fill:#C47D5F;" d="M156.781,388.24l-31.231,17.015c1.51,0.073,3.05,0.128,4.616,0.163l29.604-16.688
				C158.807,388.557,157.811,388.393,156.781,388.24z"/>
		</g>
	</g>
</g>
<g id="DESIGNED_BY_FREEPIK">
	<g>
		<g>
			<g>
				<path style="fill:#B57254;" d="M260.439,480.806h0.386v-0.486c0-0.509,0.062-0.911,0.192-1.211
					c0.128-0.299,0.347-0.516,0.654-0.653c0.306-0.135,0.727-0.204,1.26-0.204c0.95,0,1.42,0.229,1.42,0.696
					c0,0.149-0.049,0.278-0.15,0.385c-0.096,0.105-0.214,0.16-0.349,0.16c-0.062,0-0.174-0.012-0.33-0.037
					c-0.148-0.021-0.283-0.035-0.389-0.035c-0.292,0-0.479,0.088-0.566,0.259c-0.079,0.172-0.122,0.418-0.122,0.74v0.386h0.396
					c0.62,0,0.926,0.186,0.926,0.56c0,0.262-0.079,0.432-0.245,0.503c-0.163,0.071-0.39,0.107-0.68,0.107h-0.396v4.294
					c0,0.319-0.075,0.563-0.231,0.73c-0.151,0.17-0.346,0.254-0.589,0.254c-0.229,0-0.419-0.084-0.574-0.254
					c-0.153-0.167-0.228-0.411-0.228-0.73v-4.294h-0.446c-0.243,0-0.427-0.052-0.558-0.164c-0.131-0.107-0.197-0.25-0.197-0.423
					C259.625,480.998,259.896,480.806,260.439,480.806"/>
				<path style="fill:#B57254;" d="M265.745,484.915v1.355c0,0.327-0.083,0.574-0.234,0.737c-0.154,0.166-0.349,0.247-0.586,0.247
					c-0.239,0-0.43-0.082-0.579-0.25c-0.148-0.165-0.225-0.41-0.225-0.734v-4.514c0-0.729,0.263-1.093,0.788-1.093
					c0.271,0,0.465,0.084,0.583,0.255c0.118,0.171,0.184,0.421,0.198,0.755c0.192-0.334,0.39-0.584,0.593-0.755
					c0.207-0.171,0.477-0.255,0.818-0.255c0.343,0,0.67,0.084,0.991,0.255c0.322,0.171,0.482,0.398,0.482,0.678
					c0,0.197-0.069,0.363-0.204,0.488c-0.137,0.131-0.284,0.195-0.441,0.195c-0.062,0-0.207-0.039-0.433-0.112
					c-0.228-0.071-0.43-0.108-0.602-0.108c-0.237,0-0.433,0.064-0.582,0.186c-0.151,0.128-0.269,0.311-0.353,0.554
					c-0.081,0.247-0.137,0.541-0.17,0.878C265.759,484.015,265.745,484.428,265.745,484.915"/>
				<path style="fill:#B57254;" d="M273.196,484.357h-3.171c0.006,0.367,0.078,0.694,0.222,0.974
					c0.147,0.279,0.337,0.491,0.578,0.635c0.24,0.142,0.502,0.212,0.793,0.212c0.194,0,0.371-0.021,0.531-0.07
					c0.159-0.043,0.316-0.116,0.466-0.213c0.151-0.095,0.287-0.199,0.415-0.313c0.126-0.109,0.292-0.26,0.494-0.449
					c0.084-0.071,0.203-0.109,0.355-0.109c0.168,0,0.301,0.046,0.406,0.138c0.104,0.092,0.152,0.219,0.152,0.386
					c0,0.147-0.055,0.317-0.167,0.512c-0.117,0.198-0.289,0.385-0.522,0.566c-0.234,0.178-0.524,0.33-0.873,0.446
					c-0.35,0.119-0.754,0.179-1.207,0.179c-1.044,0-1.853-0.295-2.429-0.889c-0.578-0.595-0.87-1.401-0.87-2.418
					c0-0.479,0.073-0.924,0.217-1.334c0.14-0.411,0.348-0.76,0.624-1.055c0.272-0.294,0.606-0.518,1.008-0.674
					c0.399-0.156,0.842-0.234,1.33-0.234c0.632,0,1.175,0.134,1.629,0.404c0.452,0.264,0.796,0.61,1.018,1.034
					c0.226,0.425,0.339,0.855,0.339,1.296c0,0.405-0.118,0.669-0.351,0.791C273.947,484.296,273.619,484.357,273.196,484.357
					 M270.024,483.435h2.938c-0.039-0.553-0.186-0.969-0.446-1.241c-0.261-0.276-0.599-0.413-1.025-0.413
					c-0.403,0-0.736,0.137-0.995,0.418C270.237,482.478,270.079,482.889,270.024,483.435"/>
				<path style="fill:#B57254;" d="M279.938,484.357h-3.171c0.004,0.367,0.078,0.694,0.222,0.974
					c0.145,0.279,0.337,0.491,0.576,0.635c0.239,0.142,0.504,0.212,0.795,0.212c0.192,0,0.37-0.021,0.528-0.07
					c0.162-0.043,0.316-0.116,0.469-0.213c0.151-0.095,0.287-0.199,0.415-0.313c0.124-0.109,0.29-0.26,0.493-0.449
					c0.084-0.071,0.204-0.109,0.355-0.109c0.168,0,0.302,0.046,0.406,0.138c0.103,0.092,0.15,0.219,0.15,0.386
					c0,0.147-0.054,0.317-0.171,0.512c-0.111,0.198-0.284,0.385-0.519,0.566c-0.231,0.178-0.525,0.33-0.872,0.446
					c-0.349,0.119-0.755,0.179-1.209,0.179c-1.042,0-1.849-0.295-2.429-0.889c-0.577-0.595-0.868-1.401-0.868-2.418
					c0-0.479,0.073-0.924,0.217-1.334c0.142-0.411,0.349-0.76,0.623-1.055c0.272-0.294,0.608-0.518,1.009-0.674
					c0.398-0.156,0.844-0.234,1.331-0.234c0.63,0,1.174,0.134,1.633,0.404c0.45,0.264,0.791,0.61,1.013,1.034
					c0.225,0.425,0.341,0.855,0.341,1.296c0,0.405-0.12,0.669-0.351,0.791C280.688,484.296,280.36,484.357,279.938,484.357
					 M276.767,483.435h2.938c-0.04-0.553-0.19-0.969-0.447-1.241c-0.263-0.276-0.601-0.413-1.027-0.413
					c-0.403,0-0.735,0.137-0.995,0.418C276.978,482.478,276.819,482.889,276.767,483.435"/>
				<path style="fill:#B57254;" d="M283.488,481.574v0.194c0.304-0.375,0.621-0.651,0.953-0.828
					c0.324-0.177,0.699-0.267,1.114-0.267c0.497,0,0.96,0.13,1.379,0.386c0.419,0.259,0.749,0.635,0.993,1.129
					c0.244,0.497,0.366,1.081,0.366,1.758c0,0.497-0.07,0.957-0.21,1.376c-0.14,0.418-0.336,0.767-0.581,1.05
					c-0.246,0.281-0.535,0.501-0.868,0.654c-0.339,0.151-0.695,0.227-1.08,0.227c-0.461,0-0.853-0.093-1.166-0.279
					c-0.314-0.182-0.614-0.458-0.901-0.816v2.433c0,0.71-0.26,1.069-0.778,1.069c-0.306,0-0.505-0.092-0.607-0.275
					c-0.095-0.187-0.146-0.452-0.146-0.807v-6.996c0-0.309,0.066-0.537,0.2-0.692c0.134-0.15,0.32-0.228,0.553-0.228
					c0.231,0,0.416,0.078,0.56,0.234C283.417,481.055,283.488,481.278,283.488,481.574 M286.665,483.929
					c0-0.428-0.067-0.796-0.197-1.102c-0.131-0.308-0.312-0.542-0.541-0.705c-0.229-0.164-0.489-0.248-0.77-0.248
					c-0.446,0-0.824,0.178-1.13,0.527c-0.308,0.354-0.462,0.872-0.462,1.558c0,0.642,0.153,1.146,0.46,1.504
					c0.304,0.358,0.679,0.536,1.133,0.536c0.268,0,0.519-0.079,0.748-0.233c0.232-0.158,0.416-0.392,0.552-0.704
					C286.595,484.75,286.665,484.371,286.665,483.929"/>
				<path style="fill:#B57254;" d="M289.925,479.908c-0.226,0-0.418-0.071-0.577-0.209c-0.162-0.139-0.242-0.333-0.242-0.585
					c0-0.23,0.082-0.419,0.248-0.569c0.164-0.147,0.354-0.222,0.571-0.222c0.212,0,0.397,0.066,0.559,0.2
					c0.162,0.137,0.244,0.334,0.244,0.591c0,0.25-0.079,0.444-0.236,0.585C290.333,479.836,290.145,479.908,289.925,479.908
					 M290.728,481.582v4.689c0,0.322-0.078,0.568-0.231,0.732c-0.156,0.168-0.35,0.25-0.588,0.25c-0.238,0-0.428-0.084-0.58-0.254
					c-0.146-0.173-0.222-0.416-0.222-0.729v-4.642c0-0.319,0.076-0.559,0.222-0.721c0.152-0.165,0.342-0.245,0.58-0.245
					c0.238,0,0.432,0.079,0.588,0.245C290.65,481.069,290.728,481.296,290.728,481.582"/>
				<path style="fill:#B57254;" d="M295.952,486.514l-1.428-2.354l-0.88,0.83v1.291c0,0.312-0.083,0.551-0.248,0.718
					c-0.161,0.17-0.354,0.254-0.566,0.254c-0.249,0-0.447-0.082-0.588-0.25c-0.142-0.165-0.215-0.41-0.215-0.734v-6.915
					c0-0.358,0.071-0.632,0.207-0.821c0.139-0.19,0.341-0.283,0.596-0.283c0.25,0,0.445,0.085,0.593,0.257
					c0.146,0.169,0.221,0.421,0.221,0.751v3.933l1.822-1.914c0.227-0.235,0.396-0.4,0.517-0.486c0.118-0.087,0.262-0.13,0.431-0.13
					c0.204,0,0.371,0.065,0.51,0.193c0.132,0.129,0.2,0.291,0.2,0.483c0,0.237-0.221,0.555-0.659,0.951l-0.861,0.789l1.662,2.614
					c0.121,0.196,0.212,0.34,0.265,0.441c0.052,0.099,0.081,0.2,0.081,0.289c0,0.258-0.071,0.459-0.213,0.61
					c-0.14,0.148-0.327,0.221-0.554,0.221c-0.198,0-0.352-0.051-0.458-0.16C296.282,486.986,296.133,486.792,295.952,486.514"/>
				<path style="fill:#B57254;" d="M299.474,487.253c-0.245,0-0.455-0.079-0.634-0.238c-0.178-0.156-0.268-0.378-0.268-0.665
					c0-0.241,0.086-0.449,0.256-0.622c0.171-0.174,0.38-0.262,0.63-0.262c0.248,0,0.46,0.087,0.639,0.258
					c0.175,0.172,0.264,0.383,0.264,0.626c0,0.283-0.089,0.505-0.264,0.662C299.919,487.175,299.711,487.253,299.474,487.253"/>
				<path style="fill:#B57254;" d="M307.536,485.247c0,0.2-0.06,0.417-0.182,0.646c-0.12,0.231-0.305,0.449-0.554,0.656
					c-0.247,0.208-0.557,0.377-0.934,0.502c-0.375,0.126-0.8,0.192-1.269,0.192c-1.004,0-1.786-0.293-2.349-0.876
					c-0.56-0.585-0.841-1.368-0.841-2.35c0-0.667,0.128-1.254,0.387-1.765c0.254-0.509,0.628-0.905,1.113-1.184
					c0.487-0.28,1.072-0.419,1.746-0.419c0.421,0,0.805,0.061,1.158,0.184c0.35,0.122,0.645,0.282,0.891,0.474
					c0.242,0.197,0.428,0.402,0.556,0.62c0.129,0.22,0.192,0.425,0.192,0.617c0,0.192-0.071,0.357-0.214,0.492
					c-0.147,0.134-0.322,0.203-0.524,0.203c-0.137,0-0.248-0.035-0.338-0.104c-0.09-0.07-0.19-0.181-0.299-0.339
					c-0.198-0.299-0.404-0.526-0.622-0.674c-0.214-0.152-0.488-0.226-0.821-0.226c-0.476,0-0.865,0.186-1.159,0.561
					c-0.292,0.372-0.44,0.888-0.44,1.534c0,0.305,0.039,0.587,0.114,0.842c0.073,0.255,0.182,0.472,0.325,0.652
					c0.144,0.18,0.315,0.316,0.516,0.409c0.203,0.096,0.426,0.141,0.665,0.141c0.326,0,0.604-0.075,0.836-0.225
					c0.235-0.151,0.439-0.38,0.616-0.689c0.099-0.182,0.204-0.323,0.318-0.427c0.114-0.102,0.256-0.156,0.422-0.156
					c0.198,0,0.363,0.077,0.491,0.226C307.469,484.917,307.536,485.078,307.536,485.247"/>
				<path style="fill:#B57254;" d="M314.53,483.959c0,0.481-0.076,0.928-0.222,1.337c-0.154,0.408-0.37,0.758-0.656,1.049
					c-0.284,0.293-0.626,0.518-1.02,0.675c-0.4,0.154-0.844,0.234-1.337,0.234c-0.491,0-0.933-0.08-1.326-0.239
					c-0.389-0.156-0.732-0.384-1.016-0.676c-0.288-0.298-0.505-0.646-0.657-1.048c-0.143-0.402-0.219-0.846-0.219-1.332
					c0-0.491,0.078-0.941,0.224-1.349c0.151-0.409,0.368-0.758,0.649-1.046c0.282-0.289,0.621-0.511,1.019-0.669
					c0.402-0.156,0.844-0.234,1.326-0.234c0.49,0,0.936,0.078,1.337,0.239c0.399,0.157,0.739,0.384,1.027,0.674
					c0.286,0.297,0.502,0.643,0.65,1.045C314.455,483.027,314.53,483.471,314.53,483.959 M312.903,483.959
					c0-0.662-0.147-1.175-0.436-1.543c-0.289-0.372-0.681-0.555-1.171-0.555c-0.317,0-0.597,0.082-0.839,0.246
					c-0.242,0.164-0.425,0.406-0.556,0.728c-0.131,0.321-0.197,0.696-0.197,1.124c0,0.424,0.064,0.792,0.193,1.108
					c0.13,0.319,0.314,0.561,0.554,0.729c0.241,0.167,0.522,0.253,0.845,0.253c0.49,0,0.882-0.185,1.171-0.557
					C312.756,485.123,312.903,484.61,312.903,483.959"/>
				<path style="fill:#B57254;" d="M320.712,484.078v2.154c0,0.342-0.075,0.595-0.231,0.767c-0.156,0.17-0.357,0.255-0.611,0.255
					c-0.245,0-0.446-0.085-0.595-0.255c-0.154-0.173-0.233-0.425-0.233-0.767v-2.582c0-0.408-0.013-0.726-0.04-0.953
					c-0.029-0.221-0.105-0.41-0.226-0.552c-0.123-0.147-0.318-0.22-0.582-0.22c-0.532,0-0.88,0.181-1.048,0.551
					c-0.167,0.36-0.254,0.883-0.254,1.567v2.189c0,0.336-0.076,0.591-0.226,0.765c-0.156,0.171-0.355,0.258-0.603,0.258
					c-0.247,0-0.448-0.087-0.604-0.258c-0.158-0.173-0.235-0.428-0.235-0.765v-4.637c0-0.306,0.07-0.538,0.209-0.695
					c0.143-0.161,0.329-0.239,0.556-0.239c0.223,0,0.407,0.077,0.557,0.222c0.148,0.149,0.221,0.354,0.221,0.615v0.153
					c0.283-0.335,0.584-0.582,0.903-0.738c0.323-0.162,0.676-0.241,1.071-0.241c0.407,0,0.757,0.082,1.049,0.243
					c0.294,0.163,0.533,0.41,0.725,0.736c0.275-0.33,0.568-0.577,0.881-0.738c0.313-0.16,0.658-0.241,1.039-0.241
					c0.441,0,0.826,0.089,1.146,0.262c0.319,0.174,0.558,0.425,0.717,0.747c0.138,0.295,0.206,0.756,0.206,1.385v3.164
					c0,0.342-0.076,0.595-0.23,0.767c-0.154,0.17-0.359,0.255-0.612,0.255c-0.247,0-0.446-0.087-0.603-0.258
					c-0.156-0.173-0.235-0.428-0.235-0.765v-2.726c0-0.349-0.015-0.627-0.043-0.836c-0.029-0.211-0.11-0.388-0.239-0.529
					c-0.132-0.142-0.331-0.215-0.596-0.215c-0.214,0-0.416,0.066-0.608,0.192c-0.192,0.124-0.342,0.298-0.451,0.508
					C320.774,482.9,320.712,483.384,320.712,484.078"/>
			</g>
		</g>
		<g>
			<g>
				<path style="fill:#B57254;" d="M180.308,486.329v-0.16c-0.218,0.249-0.432,0.452-0.644,0.608
					c-0.211,0.157-0.441,0.276-0.689,0.357c-0.247,0.082-0.517,0.122-0.81,0.122c-0.388,0-0.747-0.082-1.078-0.246
					c-0.33-0.164-0.616-0.399-0.857-0.704c-0.242-0.305-0.425-0.662-0.549-1.074c-0.124-0.412-0.187-0.857-0.187-1.335
					c0-1.013,0.248-1.804,0.742-2.369c0.495-0.565,1.146-0.848,1.953-0.848c0.467,0,0.861,0.081,1.181,0.24
					c0.321,0.161,0.633,0.408,0.938,0.739v-2.392c0-0.333,0.066-0.583,0.199-0.754c0.132-0.17,0.321-0.255,0.567-0.255
					c0.245,0,0.434,0.078,0.567,0.234c0.133,0.157,0.199,0.386,0.199,0.691v7.147c0,0.309-0.071,0.54-0.214,0.695
					c-0.143,0.154-0.326,0.231-0.552,0.231c-0.222,0-0.405-0.08-0.549-0.24C180.38,486.854,180.308,486.625,180.308,486.329z
					 M177.12,483.948c0,0.439,0.068,0.813,0.205,1.122c0.137,0.309,0.324,0.541,0.561,0.697c0.238,0.157,0.497,0.236,0.778,0.236
					c0.285,0,0.545-0.074,0.781-0.223c0.235-0.148,0.423-0.376,0.564-0.682c0.141-0.307,0.21-0.691,0.21-1.149
					c0-0.432-0.07-0.802-0.21-1.114c-0.14-0.31-0.33-0.548-0.57-0.712c-0.24-0.164-0.502-0.245-0.786-0.245
					c-0.297,0-0.562,0.084-0.796,0.252c-0.233,0.168-0.414,0.409-0.543,0.724C177.184,483.168,177.12,483.533,177.12,483.948z"/>
				<path style="fill:#B57254;" d="M187.454,484.359h-3.17c0.004,0.368,0.078,0.692,0.223,0.973
					c0.144,0.281,0.336,0.493,0.576,0.635c0.24,0.143,0.504,0.213,0.792,0.213c0.194,0,0.371-0.022,0.531-0.067
					c0.161-0.046,0.316-0.117,0.466-0.214c0.15-0.096,0.289-0.201,0.415-0.312c0.126-0.111,0.29-0.262,0.493-0.452
					c0.083-0.071,0.202-0.107,0.357-0.107c0.166,0,0.3,0.046,0.403,0.137c0.103,0.092,0.155,0.219,0.155,0.386
					c0,0.147-0.058,0.317-0.172,0.513c-0.116,0.196-0.289,0.384-0.52,0.564c-0.232,0.18-0.522,0.329-0.873,0.448
					c-0.35,0.119-0.753,0.178-1.208,0.178c-1.04,0-1.85-0.297-2.428-0.891s-0.866-1.399-0.866-2.416
					c0-0.479,0.071-0.923,0.213-1.332c0.143-0.41,0.351-0.761,0.623-1.054c0.273-0.293,0.609-0.517,1.009-0.674
					c0.4-0.156,0.843-0.234,1.33-0.234c0.633,0,1.176,0.132,1.629,0.4c0.454,0.267,0.794,0.612,1.019,1.035
					c0.225,0.424,0.338,0.856,0.338,1.294c0,0.408-0.117,0.672-0.35,0.793C188.207,484.298,187.878,484.359,187.454,484.359z
					 M184.284,483.438h2.939c-0.039-0.554-0.19-0.969-0.448-1.244c-0.26-0.275-0.6-0.413-1.024-0.413
					c-0.404,0-0.736,0.139-0.994,0.418C184.497,482.479,184.34,482.892,184.284,483.438z"/>
				<path style="fill:#B57254;" d="M194.838,485.135c0,0.447-0.108,0.831-0.327,1.149c-0.217,0.319-0.539,0.56-0.965,0.725
					c-0.425,0.164-0.943,0.246-1.552,0.246c-0.582,0-1.08-0.089-1.496-0.267c-0.415-0.178-0.722-0.401-0.92-0.667
					c-0.198-0.268-0.297-0.535-0.297-0.805c0-0.178,0.063-0.33,0.19-0.457c0.126-0.126,0.287-0.19,0.481-0.19
					c0.17,0,0.3,0.042,0.391,0.124c0.091,0.083,0.178,0.2,0.261,0.35c0.166,0.29,0.366,0.504,0.597,0.648
					c0.231,0.142,0.547,0.214,0.947,0.214c0.324,0,0.59-0.073,0.798-0.217c0.208-0.145,0.311-0.31,0.311-0.496
					c0-0.285-0.107-0.492-0.324-0.622c-0.216-0.131-0.571-0.256-1.066-0.375c-0.558-0.138-1.012-0.284-1.362-0.436
					c-0.35-0.151-0.63-0.353-0.84-0.602c-0.21-0.25-0.315-0.557-0.315-0.92c0-0.324,0.097-0.631,0.291-0.92
					c0.194-0.288,0.48-0.519,0.858-0.691c0.377-0.173,0.833-0.259,1.368-0.259c0.42,0,0.797,0.043,1.131,0.131
					c0.335,0.086,0.614,0.204,0.837,0.35c0.224,0.146,0.394,0.308,0.51,0.486c0.117,0.178,0.175,0.352,0.175,0.523
					c0,0.186-0.062,0.338-0.187,0.457c-0.124,0.118-0.301,0.178-0.532,0.178c-0.166,0-0.308-0.048-0.424-0.143
					c-0.117-0.095-0.25-0.237-0.401-0.427c-0.123-0.158-0.266-0.285-0.433-0.38c-0.166-0.095-0.392-0.142-0.677-0.142
					c-0.293,0-0.536,0.062-0.73,0.187c-0.194,0.124-0.291,0.279-0.291,0.465c0,0.171,0.071,0.31,0.213,0.419
					c0.143,0.109,0.335,0.199,0.577,0.27c0.241,0.071,0.573,0.158,0.997,0.261c0.502,0.123,0.912,0.27,1.231,0.439
					c0.318,0.17,0.56,0.371,0.725,0.603C194.756,484.575,194.838,484.838,194.838,485.135z"/>
				<path style="fill:#B57254;" d="M196.494,479.912c-0.226,0-0.418-0.07-0.579-0.208c-0.16-0.138-0.24-0.334-0.24-0.588
					c0-0.23,0.082-0.418,0.246-0.567s0.355-0.223,0.573-0.223c0.21,0,0.396,0.067,0.558,0.202c0.162,0.135,0.244,0.33,0.244,0.588
					c0,0.25-0.08,0.444-0.238,0.585C196.899,479.841,196.711,479.912,196.494,479.912z M197.295,481.586v4.683
					c0,0.325-0.077,0.571-0.232,0.737c-0.155,0.166-0.35,0.249-0.588,0.249c-0.238,0-0.431-0.085-0.579-0.255
					c-0.149-0.17-0.223-0.414-0.223-0.731v-4.636c0-0.32,0.074-0.562,0.223-0.724c0.148-0.162,0.341-0.243,0.579-0.243
					c0.238,0,0.433,0.081,0.588,0.243C197.218,481.071,197.295,481.297,197.295,481.586z"/>
				<path style="fill:#B57254;" d="M204.395,481.853v4.707c0,0.538-0.058,1.002-0.173,1.39c-0.114,0.387-0.298,0.708-0.552,0.961
					c-0.253,0.253-0.585,0.441-0.994,0.563c-0.41,0.123-0.919,0.184-1.529,0.184c-0.558,0-1.057-0.078-1.496-0.234
					c-0.439-0.157-0.777-0.358-1.015-0.605c-0.237-0.247-0.356-0.502-0.356-0.763c0-0.198,0.067-0.359,0.202-0.483
					c0.134-0.125,0.297-0.187,0.486-0.187c0.238,0,0.445,0.105,0.623,0.314c0.087,0.107,0.177,0.215,0.27,0.324
					c0.093,0.109,0.197,0.202,0.309,0.28c0.113,0.076,0.248,0.134,0.407,0.172c0.158,0.037,0.341,0.056,0.546,0.056
					c0.42,0,0.745-0.058,0.977-0.175c0.232-0.117,0.394-0.28,0.487-0.49c0.093-0.209,0.147-0.433,0.163-0.673
					c0.016-0.24,0.027-0.624,0.035-1.155c-0.25,0.349-0.537,0.615-0.864,0.797c-0.326,0.182-0.715,0.273-1.166,0.273
					c-0.542,0-1.016-0.138-1.422-0.416c-0.405-0.277-0.717-0.665-0.934-1.163c-0.218-0.499-0.326-1.074-0.326-1.727
					c0-0.486,0.066-0.926,0.198-1.318c0.133-0.392,0.322-0.723,0.567-0.992c0.245-0.269,0.528-0.472,0.849-0.609
					c0.32-0.136,0.673-0.204,1.057-0.204c0.459,0,0.857,0.089,1.193,0.264c0.336,0.177,0.649,0.453,0.938,0.829v-0.22
					c0-0.281,0.069-0.498,0.208-0.653c0.139-0.154,0.317-0.231,0.535-0.231c0.313,0,0.52,0.102,0.623,0.306
					C204.343,481.175,204.395,481.469,204.395,481.853z M199.699,483.907c0,0.657,0.143,1.154,0.43,1.49
					c0.287,0.337,0.658,0.505,1.113,0.505c0.269,0,0.523-0.073,0.762-0.217c0.24-0.145,0.435-0.363,0.585-0.653
					c0.15-0.291,0.225-0.644,0.225-1.06c0-0.66-0.145-1.176-0.436-1.543c-0.291-0.368-0.674-0.552-1.149-0.552
					c-0.463,0-0.834,0.176-1.113,0.529C199.838,482.757,199.699,483.258,199.699,483.907z"/>
				<path style="fill:#B57254;" d="M206.97,481.562v0.196c0.284-0.376,0.596-0.652,0.935-0.828c0.339-0.176,0.727-0.264,1.166-0.264
					c0.428,0,0.809,0.093,1.146,0.279c0.336,0.186,0.588,0.449,0.753,0.789c0.107,0.198,0.176,0.413,0.208,0.642
					c0.032,0.23,0.048,0.522,0.048,0.879v3.015c0,0.325-0.074,0.571-0.223,0.737c-0.148,0.166-0.341,0.249-0.579,0.249
					c-0.242,0-0.437-0.085-0.588-0.255c-0.151-0.17-0.226-0.414-0.226-0.731v-2.701c0-0.534-0.074-0.943-0.223-1.226
					c-0.149-0.283-0.444-0.425-0.888-0.425c-0.288,0-0.552,0.086-0.789,0.258c-0.238,0.173-0.412,0.41-0.523,0.71
					c-0.079,0.242-0.119,0.692-0.119,1.353v2.03c0,0.328-0.077,0.576-0.228,0.74c-0.152,0.164-0.349,0.246-0.59,0.246
					c-0.234,0-0.425-0.085-0.576-0.255c-0.15-0.17-0.225-0.414-0.225-0.731v-4.683c0-0.309,0.067-0.54,0.202-0.692
					c0.135-0.152,0.319-0.228,0.552-0.228c0.143,0,0.272,0.033,0.387,0.101c0.114,0.068,0.207,0.168,0.276,0.302
					C206.936,481.204,206.97,481.368,206.97,481.562z"/>
				<path style="fill:#B57254;" d="M216.829,484.359h-3.17c0.004,0.368,0.078,0.692,0.223,0.973
					c0.144,0.281,0.336,0.493,0.576,0.635c0.239,0.143,0.503,0.213,0.792,0.213c0.194,0,0.371-0.022,0.532-0.067
					c0.16-0.046,0.315-0.117,0.466-0.214c0.15-0.096,0.288-0.201,0.416-0.312c0.126-0.111,0.29-0.262,0.492-0.452
					c0.083-0.071,0.202-0.107,0.356-0.107c0.166,0,0.301,0.046,0.404,0.137c0.103,0.092,0.154,0.219,0.154,0.386
					c0,0.147-0.057,0.317-0.172,0.513c-0.115,0.196-0.288,0.384-0.52,0.564c-0.232,0.18-0.522,0.329-0.872,0.448
					c-0.35,0.119-0.753,0.178-1.208,0.178c-1.041,0-1.85-0.297-2.428-0.891c-0.577-0.593-0.866-1.399-0.866-2.416
					c0-0.479,0.072-0.923,0.214-1.332c0.143-0.41,0.351-0.761,0.624-1.054c0.273-0.293,0.609-0.517,1.009-0.674
					c0.4-0.156,0.843-0.234,1.33-0.234c0.633,0,1.175,0.132,1.629,0.4c0.453,0.267,0.793,0.612,1.019,1.035
					c0.225,0.424,0.338,0.856,0.338,1.294c0,0.408-0.117,0.672-0.35,0.793C217.581,484.298,217.253,484.359,216.829,484.359z
					 M213.659,483.438h2.938c-0.039-0.554-0.189-0.969-0.448-1.244c-0.26-0.275-0.601-0.413-1.024-0.413
					c-0.404,0-0.736,0.139-0.995,0.418C213.871,482.479,213.715,482.892,213.659,483.438z"/>
				<path style="fill:#B57254;" d="M223.435,486.329v-0.16c-0.218,0.249-0.432,0.452-0.644,0.608
					c-0.212,0.157-0.441,0.276-0.689,0.357c-0.247,0.082-0.517,0.122-0.81,0.122c-0.389,0-0.747-0.082-1.078-0.246
					c-0.331-0.164-0.617-0.399-0.858-0.704c-0.242-0.305-0.424-0.662-0.549-1.074c-0.125-0.412-0.187-0.857-0.187-1.335
					c0-1.013,0.247-1.804,0.742-2.369c0.495-0.565,1.146-0.848,1.953-0.848c0.467,0,0.861,0.081,1.181,0.24
					c0.32,0.161,0.633,0.408,0.938,0.739v-2.392c0-0.333,0.067-0.583,0.199-0.754c0.132-0.17,0.322-0.255,0.567-0.255
					c0.245,0,0.434,0.078,0.567,0.234c0.132,0.157,0.199,0.386,0.199,0.691v7.147c0,0.309-0.071,0.54-0.214,0.695
					c-0.143,0.154-0.326,0.231-0.552,0.231c-0.222,0-0.405-0.08-0.549-0.24C223.507,486.854,223.435,486.625,223.435,486.329z
					 M220.248,483.948c0,0.439,0.068,0.813,0.204,1.122c0.136,0.309,0.324,0.541,0.561,0.697c0.237,0.157,0.496,0.236,0.777,0.236
					c0.285,0,0.546-0.074,0.781-0.223c0.235-0.148,0.424-0.376,0.564-0.682c0.141-0.307,0.211-0.691,0.211-1.149
					c0-0.432-0.07-0.802-0.211-1.114c-0.14-0.31-0.33-0.548-0.57-0.712c-0.24-0.164-0.502-0.245-0.787-0.245
					c-0.296,0-0.562,0.084-0.795,0.252c-0.233,0.168-0.414,0.409-0.543,0.724C220.312,483.168,220.248,483.533,220.248,483.948z"/>
				<path style="fill:#B57254;" d="M230.059,479.182v2.475c0.305-0.316,0.615-0.559,0.932-0.727
					c0.316-0.168,0.709-0.252,1.176-0.252c0.538,0,1.01,0.128,1.416,0.382c0.405,0.256,0.72,0.626,0.944,1.111
					c0.223,0.484,0.336,1.06,0.336,1.725c0,0.491-0.063,0.94-0.187,1.35c-0.125,0.41-0.306,0.765-0.543,1.065
					c-0.238,0.301-0.525,0.534-0.864,0.698c-0.339,0.164-0.712,0.246-1.119,0.246c-0.25,0-0.484-0.029-0.704-0.089
					c-0.22-0.059-0.407-0.137-0.561-0.234c-0.154-0.096-0.286-0.197-0.395-0.3c-0.109-0.103-0.253-0.258-0.431-0.463v0.16
					c0,0.305-0.073,0.535-0.22,0.692c-0.146,0.156-0.332,0.234-0.558,0.234c-0.229,0-0.413-0.078-0.549-0.234
					c-0.137-0.157-0.205-0.388-0.205-0.692v-7.076c0-0.328,0.066-0.577,0.198-0.745c0.133-0.168,0.318-0.252,0.555-0.252
					c0.25,0,0.441,0.08,0.576,0.24C229.992,478.657,230.059,478.884,230.059,479.182z M230.136,483.996
					c0,0.645,0.147,1.14,0.442,1.486c0.295,0.347,0.682,0.521,1.161,0.521c0.407,0,0.759-0.177,1.053-0.532
					c0.295-0.355,0.442-0.862,0.442-1.523c0-0.427-0.061-0.796-0.184-1.104c-0.123-0.309-0.297-0.547-0.522-0.715
					c-0.226-0.168-0.489-0.252-0.79-0.252c-0.309,0-0.584,0.084-0.825,0.252c-0.241,0.168-0.431,0.411-0.57,0.73
					C230.205,483.177,230.136,483.557,230.136,483.996z"/>
				<path style="fill:#B57254;" d="M236.963,487.457l0.148-0.363l-1.995-5.022c-0.122-0.288-0.184-0.499-0.184-0.629
					c0-0.139,0.036-0.267,0.107-0.385c0.071-0.119,0.169-0.214,0.294-0.285c0.125-0.072,0.255-0.107,0.389-0.107
					c0.233,0,0.409,0.074,0.528,0.223c0.119,0.148,0.223,0.361,0.314,0.638l1.372,3.989l1.3-3.71c0.103-0.3,0.196-0.536,0.279-0.706
					c0.083-0.17,0.171-0.285,0.264-0.344c0.093-0.06,0.225-0.09,0.395-0.09c0.123,0,0.24,0.032,0.353,0.098
					c0.113,0.065,0.2,0.153,0.261,0.264c0.061,0.111,0.092,0.227,0.092,0.35c-0.016,0.075-0.042,0.182-0.077,0.321
					c-0.036,0.138-0.079,0.279-0.13,0.421l-2.113,5.533c-0.183,0.486-0.36,0.868-0.535,1.145c-0.174,0.277-0.404,0.491-0.692,0.638
					c-0.287,0.149-0.674,0.223-1.161,0.223c-0.474,0-0.831-0.051-1.068-0.154c-0.238-0.104-0.356-0.292-0.356-0.565
					c0-0.185,0.056-0.33,0.169-0.43c0.112-0.101,0.28-0.152,0.501-0.152c0.087,0,0.173,0.012,0.256,0.037
					c0.103,0.023,0.192,0.035,0.267,0.035c0.186,0,0.333-0.027,0.44-0.084c0.107-0.055,0.202-0.151,0.288-0.288
					C236.754,487.923,236.852,487.722,236.963,487.457z"/>
			</g>
		</g>
		<g>
			<g>
				<path style="fill:#B57254;" d="M245.272,483.567c-0.001-0.003-0.001-0.006-0.001-0.011
					C245.271,483.561,245.271,483.564,245.272,483.567z"/>
				<path style="fill:#B57254;" d="M245.354,484.085c0.001,0,0.001,0,0.001,0c-0.031-0.148-0.055-0.294-0.074-0.439
					C245.3,483.792,245.324,483.939,245.354,484.085z"/>
				<path style="fill:#B57254;" d="M245.89,485.589c-0.004-0.006-0.007-0.013-0.011-0.021
					C245.883,485.576,245.887,485.583,245.89,485.589z"/>
				<path style="fill:#B57254;" d="M245.839,485.489c-0.014-0.027-0.027-0.056-0.041-0.084
					C245.811,485.435,245.825,485.461,245.839,485.489z"/>
				<path style="fill:#B57254;" d="M245.505,484.664c0.079,0.25,0.175,0.492,0.286,0.724c-0.113-0.236-0.206-0.479-0.284-0.724
					H245.505z"/>
				<path style="fill:#B57254;" d="M251.546,477.357c0.313,0,0.544,0.025,0.809,0.07l0.075-0.477c0,0-0.732-0.225-1.694-0.146
					l-0.076-0.259c0.299-0.063,0.524-0.329,0.524-0.646c0-0.364-0.296-0.658-0.661-0.658c-0.364,0-0.66,0.295-0.66,0.658
					c0,0.317,0.224,0.584,0.523,0.646l0.084,0.289c-1.021,0.14-1.834,0.539-1.834,0.539l0.144,0.441
					c0.618-0.206,1.154-0.331,1.64-0.383C250.895,477.379,251.253,477.357,251.546,477.357z"/>
				<path style="fill:#B57254;" d="M245.878,479.768l0.004-0.005c0.024-0.031,0.047-0.06,0.071-0.089l-0.196-0.141l-0.305-0.223
					c-0.017,0.024-0.497,0.465-0.876,1.28c-0.016-0.026-0.035-0.051-0.056-0.075c-0.113-0.124-0.272-0.187-0.474-0.184
					c-0.003,0-0.006,0-0.009,0c-0.125,0-0.211-0.042-0.267-0.092c0.056-0.071,0.089-0.16,0.089-0.258
					c0-0.23-0.187-0.418-0.418-0.418c-0.23,0-0.418,0.188-0.418,0.418c0,0.231,0.187,0.418,0.418,0.418
					c0.036,0,0.071-0.006,0.104-0.013c0.103,0.114,0.266,0.214,0.505,0.209c0.123-0.001,0.213,0.03,0.273,0.097
					c0.069,0.076,0.093,0.185,0.1,0.267c-0.001,0.001-0.001,0.003-0.002,0.003c-0.272,0.743-0.194,1.669-0.194,1.669l0.661,0.026
					c0.013-0.337,0.062-0.927,0.232-1.394C245.449,480.358,245.861,479.792,245.878,479.768z"/>
				<path style="fill:#B57254;" d="M257.295,477.909c-0.23,0-0.418,0.187-0.418,0.418c0,0.036,0.005,0.07,0.015,0.103
					c-0.115,0.104-0.214,0.267-0.211,0.507c0.002,0.123-0.03,0.212-0.096,0.273c-0.053,0.047-0.12,0.072-0.185,0.088
					c-0.492-0.689-1.098-1.11-1.098-1.11l-0.474,0.508c0.358,0.326,0.725,0.734,1.08,1.244c0.246,0.352,0.499,0.806,0.71,1.259
					l0.64-0.304c0,0-0.292-0.722-0.704-1.37c0.071-0.025,0.143-0.064,0.207-0.12c0.125-0.113,0.187-0.273,0.183-0.474
					c-0.001-0.13,0.041-0.218,0.093-0.276c0.071,0.054,0.161,0.089,0.258,0.089c0.232,0,0.419-0.187,0.419-0.418
					C257.714,478.096,257.527,477.909,257.295,477.909z"/>
				<path style="fill:#B57254;" d="M255.634,483.66c-0.881,0.429-2.33,0.996-4.238,1.262c-0.749,0.104-1.475,0.142-2.143,0.142
					c-0.869,0-1.637-0.065-2.227-0.139c-0.673-0.085-1.198-0.189-1.52-0.261c0.077,0.245,0.171,0.488,0.284,0.724
					c0.002,0.006,0.005,0.013,0.008,0.017c0.013,0.027,0.027,0.056,0.041,0.084c0.013,0.027,0.027,0.054,0.041,0.079
					c0.004,0.007,0.007,0.015,0.011,0.021c0.189,0.356,0.417,0.684,0.675,0.968c0.9,0.984,1.817,1.14,1.826,1.141l0.014,0.002
					l0.013,0.005c0.008,0.003,0.821,0.266,2.057,0.266c1.216,0,2.409-0.245,3.546-0.729c0.842-0.431,1.639-1.085,2.034-1.669
					c0.305-0.452,0.525-0.933,0.656-1.434c0.069-0.266,0.125-0.692,0.092-1.141C256.556,483.165,256.165,483.402,255.634,483.66z"/>
				<path style="fill:#B57254;" d="M246.161,479.977c-0.026,0.037-0.408,0.578-0.71,1.408c-0.226,0.622-0.216,1.527-0.216,1.537
					v0.002c0,0.212,0.012,0.423,0.035,0.632c0,0.005,0,0.008,0.001,0.011c0.002,0.027,0.007,0.052,0.009,0.079
					c0.019,0.145,0.043,0.291,0.074,0.439c0.438,0.111,3.049,0.72,5.968,0.314c1.829-0.255,3.218-0.795,4.062-1.204
					c0.701-0.34,1.151-0.648,1.325-0.774c-0.173-0.643-0.651-1.65-1.089-2.279c-1.253-1.791-2.604-2.25-3.298-2.365
					c-0.265-0.043-0.477-0.068-0.777-0.068c-0.28,0-0.626,0.023-1.09,0.072c-0.464,0.048-0.982,0.17-1.583,0.372
					c-0.842,0.282-1.605,0.725-2.204,1.28l-0.02,0.019C246.56,479.533,246.374,479.705,246.161,479.977z M253.829,479.56
					c0.601,0,1.089,0.488,1.089,1.09c0,0.601-0.489,1.09-1.089,1.09c-0.601,0-1.089-0.489-1.089-1.09
					C252.74,480.048,253.228,479.56,253.829,479.56z M248.678,479.517c0.973,0,1.761,0.788,1.761,1.761
					c0,0.972-0.788,1.759-1.761,1.759c-0.972,0-1.76-0.787-1.76-1.759C246.918,480.305,247.707,479.517,248.678,479.517z"/>
			</g>
		</g>
	</g>
</g>
</svg>
