<?xml version="1.0" encoding="utf-8"?>
<!-- Generator: Adobe Illustrator 27.5.0, SVG Export Plug-In . SVG Version: 6.00 Build 0)  -->
<svg version="1.1" xmlns="http://www.w3.org/2000/svg" xmlns:xlink="http://www.w3.org/1999/xlink" x="0px" y="0px"
	 viewBox="0 0 500 500" style="enable-background:new 0 0 500 500;" xml:space="preserve">
<g id="BACKGROUND">
	<rect style="fill:#F4EDDF;" width="500" height="500"/>
</g>
<g id="OBJECTS">
	<g>
		<path style="fill:#DBCBB9;" d="M79.239,452.369c0,0-44.958-32.585-26.768-111.03c19.046-82.136,131.484-61.315,172.934-124.582
			c41.45-63.266,105.807-89.445,163.62-64.357c57.812,25.088,82.901,242.157,27.27,302.151L79.239,452.369z"/>
		<g>
			<rect x="145.756" y="57.398" style="fill:#DBCBB9;" width="137.237" height="80.502"/>
			
				<rect x="179.474" y="33.53" transform="matrix(-1.836970e-16 1 -1 -1.836970e-16 312.0241 -116.7255)" style="fill:#F4EDDF;" width="69.802" height="128.238"/>
			<g>
				<rect x="167.244" y="79.86" style="fill:#DBCBB9;" width="59.901" height="4.594"/>
				<rect x="167.244" y="90.701" style="fill:#DBCBB9;" width="94.261" height="4.594"/>
				<rect x="167.244" y="100.072" style="fill:#DBCBB9;" width="94.261" height="4.594"/>
				<rect x="167.244" y="109.443" style="fill:#DBCBB9;" width="94.261" height="4.594"/>
				<rect x="167.244" y="118.814" style="fill:#DBCBB9;" width="94.261" height="4.594"/>
			</g>
			<circle style="fill:#DBCBB9;" cx="247.428" cy="79.971" r="7.595"/>
		</g>
	</g>
	<g>
		<g>
			<path style="fill:#101E1E;" d="M325.657,86.97c0,0-3.1-3.664-1.268-17.334c1.832-13.67,12.543-21.985,23.817-20.576
				c11.274,1.409,23.415-1.394,36.077,13.811c7.907,9.495,11.556,46.083,2.114,61.163c-9.442,15.079-49.466,10.429-60.317,4.228
				C315.229,122.061,317.624,97.822,325.657,86.97z"/>
			<path style="fill:#39577F;" d="M323.574,126.625c0,0-28.544,26.754-39.42,50.683l31.905,16.194l16.677-15.71l5.076-26.587
				c0,0-0.967-8.701-1.934-10.152C334.911,139.602,323.574,126.625,323.574,126.625z"/>
			<path style="fill:#2A4056;" d="M325.042,130.592c0,0-18.533,29.546-23.368,49.96c-4.835,20.414,10.207,26.323,10.207,26.323
				l13.699-13.699l4.835-23.906l1.074-13.43L325.042,130.592z"/>
			<path style="fill:#E5A187;" d="M262.112,150.13c0,0-11.316-13.609-13.747-12.897c-2.631,0.771,2.188,8.479,2.188,8.479
				s-16.801-10.755-19.516-10.368c-2.715,0.387,6.961,7.852,6.961,7.852s-10.685-5.742-11.602-4.539
				c-0.916,1.202,10.395,8.192,10.395,8.192s-9.714-4.804-10.942-3.947c-1.227,0.858,9.566,7.907,9.566,7.907
				s-9.599-4.687-10.053-3.527c-0.454,1.16,18.571,16.074,30.483,18.394C255.846,165.677,261.322,152.72,262.112,150.13z"/>
			<path style="fill:#39577F;" d="M323.341,182.287c0,0-4.743,21.862-20.917,21.829c-16.174-0.034-60.964-10.894-60.964-10.894
				s-2.141-25.128,18.884-49.335L323.341,182.287z"/>
			<path style="fill:#39577F;" d="M415.728,313.529c0,0-59.952,14.532-118.101-0.605c0,0,2.542-28.326,7.512-68.048
				c0.584-4.591,1.189-9.336,1.834-14.204c4.161-31.739,9.715-68.837,16.602-104.05h68.448c0,0,6.651,40.839,12.933,86.833
				c2.132,15.526,4.212,31.636,5.985,46.957C413.269,280.488,415.062,299.222,415.728,313.529z"/>
			<path style="fill:#2A4056;" d="M382.677,139.086c0,0-15.301,31.033-21.335,54.955c0,0,21.335,7.758,22.413,6.681
				c1.078-1.077,3.448-15.732,3.448-15.732s0.215-17.672-0.431-19.18c-0.647-1.509-0.647-10.129-0.647-10.129L382.677,139.086z"/>
			<path style="fill:#2A4056;" d="M410.942,260.412c-42.418,2.357-91.988-11.396-105.803-15.536
				c0.584-4.591,1.189-9.336,1.834-14.204c3.731-8.373,8.25-17.719,9.91-17.924c3.023-0.379,28.326-1.138,28.326-1.138l59.747,1.845
				C407.089,228.981,409.169,245.091,410.942,260.412z"/>
			<path style="fill:#39577F;" d="M391.54,126.377c16.747-0.12,25.247,73.23,25.247,73.23l-38.485,3.567
				C378.302,203.174,371.39,126.521,391.54,126.377z"/>
			<path style="fill:#DC786E;" d="M363.354,100.074l0.901,29.333c0,0-14.281,3.088-22.643,0.129l5.404-26.374L363.354,100.074z"/>
			<path style="fill:#E5A187;" d="M327.172,77.669c-3.063,10.346-8.376,34.356,13.291,38.614
				c21.668,4.258,25.13-20.012,25.13-20.012s6.556-4.631,6.91-10.627c0.354-5.996-2.822-9.295-6.406-7.509
				c-3.584,1.786-4.409,9.984-4.409,9.984s-3.805-2.513-4.838-7.567c0,0-16.226-3.396-20.716-12.481
				C336.134,68.071,328.763,72.295,327.172,77.669z"/>
			<g>
				<g>
					<g>
						<path style="fill:#DC786E;" d="M336.282,92.592c-0.618,1.887-1.126,3.898-1.243,5.888c-0.097,1.653,0.508,3.532,2.266,4.03
							c0.673,0.191,0.961-0.856,0.289-1.047c-1.544-0.438-1.568-2.36-1.405-3.649c0.211-1.675,0.616-3.33,1.141-4.933
							C337.547,92.215,336.499,91.93,336.282,92.592L336.282,92.592z"/>
					</g>
				</g>
				<g>
					<g>
						<path style="fill:#DC786E;" d="M367.694,80.443c-0.692,0.189-1.139,0.721-1.476,1.328c-0.417,0.753-0.778,1.548-1.116,2.339
							c-0.685,1.605-1.248,3.35-1.228,5.115c0.008,0.742,0.224,1.518,0.897,1.925c0.569,0.345,1.426,0.296,1.722-0.379
							c0.288-0.658,0.177-1.58,0.06-2.265c-0.139-0.814-0.465-1.591-0.922-2.278c-0.385-0.579-1.326-0.036-0.938,0.548
							c0.638,0.959,0.957,2.083,0.853,3.237c-0.023,0.259-0.026,0.364-0.287,0.158c-0.207-0.163-0.265-0.461-0.291-0.708
							c-0.062-0.594,0.033-1.236,0.142-1.819c0.224-1.203,0.643-2.363,1.144-3.476c0.243-0.541,0.502-1.076,0.773-1.604
							c0.218-0.425,0.458-0.938,0.955-1.074C368.656,81.306,368.37,80.258,367.694,80.443L367.694,80.443z"/>
					</g>
				</g>
				<g>
					<path style="fill:#101E1E;" d="M347.675,92.598c0,2.3-1.103,4.165-2.463,4.165c-1.36,0-2.463-1.865-2.463-4.165
						c0-2.3,1.103-4.165,2.463-4.165C346.572,88.433,347.675,90.298,347.675,92.598z"/>
					<g>
						<g>
							<path style="fill:#101E1E;" d="M345.668,86.095c0.692,0.112,1.243,0.32,1.819,0.682c0.29,0.182,0.467,0.32,0.721,0.561
								c0.123,0.117,0.24,0.239,0.35,0.368c0.125,0.145,0.164,0.197,0.279,0.366c0.152,0.223,0.44,0.323,0.685,0.18
								c0.221-0.129,0.333-0.461,0.18-0.686c-0.869-1.274-2.238-2.189-3.767-2.437c-0.267-0.043-0.539,0.069-0.616,0.35
								C345.252,85.718,345.399,86.051,345.668,86.095L345.668,86.095z"/>
						</g>
					</g>
				</g>
				<g>
					<path style="fill:#101E1E;" d="M328.12,92.598c0,2.3,1.103,4.165,2.463,4.165c1.36,0,2.463-1.865,2.463-4.165
						c0-2.3-1.103-4.165-2.463-4.165C329.223,88.433,328.12,90.298,328.12,92.598z"/>
					<g>
						<g>
							<path style="fill:#101E1E;" d="M329.861,85.129c-1.529,0.248-2.899,1.163-3.767,2.437c-0.152,0.224-0.042,0.556,0.18,0.686
								c0.248,0.145,0.533,0.045,0.686-0.18c0.17-0.25,0.36-0.475,0.61-0.715c0.122-0.117,0.25-0.229,0.383-0.334
								c0.077-0.06-0.092,0.064,0.048-0.035c0.029-0.021,0.058-0.042,0.087-0.062c0.073-0.051,0.147-0.101,0.223-0.148
								c0.577-0.363,1.126-0.57,1.819-0.682c0.267-0.044,0.416-0.376,0.35-0.616C330.399,85.194,330.129,85.085,329.861,85.129
								L329.861,85.129z"/>
						</g>
					</g>
				</g>
				<path style="fill:#FFFFFF;" d="M333.405,105.761c0,0,8.823,0.108,13.04-0.917c0,0-2.663,4.357-6.858,4.577
					C335.392,109.642,333.405,105.761,333.405,105.761z"/>
			</g>
			<path style="fill:#FFFFFF;" d="M336.107,124.968c0,0-8.014,26.287-9.297,47.766c0,0,23.081,6.091,43.598,0.321
				c0,0,1.458-34.891-1.427-48.035C368.982,125.019,347.328,121.441,336.107,124.968z"/>
			<g>
				<polygon style="fill:#873D2A;" points="343.832,241.403 292.009,241.403 281.899,157.103 333.723,157.103 				"/>
				<polygon style="fill:#B64A30;" points="340.45,241.403 288.626,241.403 278.517,157.103 330.34,157.103 				"/>
			</g>
			<path style="fill:#E5A187;" d="M348.051,191.971c0,0-15.497-8.55-17.502-7.001c-2.169,1.676,5.127,7.099,5.127,7.099
				s-19.564-3.893-21.952-2.544c-2.388,1.35,9.344,4.776,9.344,4.776s-12.043-1.454-12.458,0
				c-0.415,1.453,12.666,3.841,12.666,3.841s-10.797-0.934-11.628,0.312c-0.83,1.246,11.789,3.878,11.789,3.878
				s-10.647-0.867-10.647,0.379c0,1.246,23.151,8.201,35.09,6.021C347.88,208.732,348.259,194.671,348.051,191.971z"/>
			<path style="fill:#39577F;" d="M416.788,199.607c0,0,3.549,22.088-11.525,27.95c-15.074,5.862-60.742,12.069-60.742,12.069
				s-11.15-22.62-0.391-52.825L416.788,199.607z"/>
		</g>
		<g>
			<rect x="294.871" y="233.09" style="fill:#7C3C0E;" width="130.59" height="217.236"/>
			<rect x="275.227" y="233.09" style="fill:#984911;" width="130.59" height="217.236"/>
			<rect x="253.935" y="233.09" style="fill:#D5992F;" width="194.128" height="18.562"/>
		</g>
		<g>
			<g>
				<g>
					<g>
						<path style="fill:#D5992F;" d="M215.04,173.715h-32.892l16.446-91.819L215.04,173.715z M182.943,173.049h31.301L198.594,85.67
							L182.943,173.049z"/>
					</g>
					<g>
						<path style="fill:#7C3C0E;" d="M218.093,174.204c0,6.683-8.73,12.1-19.499,12.1c-10.769,0-19.499-5.418-19.499-12.1H218.093z"
							/>
						<rect x="176.741" y="172.363" style="fill:#D5992F;" width="43.706" height="2.63"/>
					</g>
				</g>
				<g>
					<g>
						<path style="fill:#D5992F;" d="M90.237,173.715H57.345l16.446-91.819L90.237,173.715z M58.14,173.049h31.301L73.791,85.67
							L58.14,173.049z"/>
					</g>
					<g>
						<path style="fill:#7C3C0E;" d="M93.289,174.204c0,6.683-8.73,12.1-19.499,12.1c-10.769,0-19.499-5.418-19.499-12.1H93.289z"/>
						<rect x="51.937" y="172.363" style="fill:#D5992F;" width="43.707" height="2.63"/>
					</g>
				</g>
			</g>
			<g>
				<rect x="133.951" y="71.547" style="fill:#7C3C0E;" width="4.481" height="109.126"/>
				<rect x="131.961" y="175.841" style="fill:#7C3C0E;" width="8.463" height="41.666"/>
				<rect x="131.961" y="175.841" style="fill:#D5992F;" width="8.463" height="1.458"/>
			</g>
			<rect x="122.091" y="213.518" style="fill:#DA7C2E;" width="28.203" height="6.657"/>
			<rect x="112.529" y="216.907" style="fill:#7C3C0E;" width="47.327" height="9.078"/>
			<path style="fill:#7C3C0E;" d="M199.106,79.969v2.188H163.68c-4.036,0-8.012,0.981-11.572,2.882
				c-3.676,1.963-9.438,3.227-15.916,3.227c-6.478,0-12.239-1.264-15.916-3.227c-3.56-1.901-7.536-2.882-11.572-2.882H73.279v-2.188
				H199.106z"/>
			<path style="fill:#DA7C2E;" d="M140.298,69.182c0,2.268-1.838,4.106-4.106,4.106c-2.268,0-4.106-1.838-4.106-4.106
				c0-2.267,1.838-4.106,4.106-4.106C138.46,65.076,140.298,66.915,140.298,69.182z"/>
			<g>
				<path style="fill:#DA7C2E;" d="M203.221,81.038c0,2.268-1.838,4.106-4.106,4.106c-2.268,0-4.106-1.838-4.106-4.106
					c0-2.268,1.838-4.106,4.106-4.106C201.382,76.933,203.221,78.771,203.221,81.038z"/>
				<path style="fill:#DA7C2E;" d="M77.376,81.038c0,2.268-1.838,4.106-4.106,4.106c-2.268,0-4.106-1.838-4.106-4.106
					c0-2.268,1.838-4.106,4.106-4.106C75.537,76.933,77.376,78.771,77.376,81.038z"/>
			</g>
		</g>
		<g>
			<rect x="102.395" y="236.968" style="fill:#D5992F;" width="67.595" height="166.969"/>
			<g>
				<rect x="106.659" y="243.668" style="fill:#B36023;" width="1.59" height="153.569"/>
				<rect x="116.239" y="243.668" style="fill:#B36023;" width="1.59" height="153.569"/>
				<rect x="125.818" y="243.668" style="fill:#B36023;" width="1.59" height="153.569"/>
				<rect x="135.397" y="243.668" style="fill:#B36023;" width="1.59" height="153.569"/>
				<rect x="144.977" y="243.668" style="fill:#B36023;" width="1.59" height="153.569"/>
				<rect x="154.556" y="243.668" style="fill:#B36023;" width="1.59" height="153.569"/>
				<rect x="164.136" y="243.668" style="fill:#B36023;" width="1.59" height="153.569"/>
			</g>
			<g>
				<path style="fill:#B36023;" d="M180.295,253.724H92.09c-7.623,0-13.803-6.18-13.803-13.803l0,0
					c0-7.623,6.18-13.803,13.803-13.803h88.205c7.623,0,13.803,6.18,13.803,13.803l0,0
					C194.098,247.544,187.918,253.724,180.295,253.724z"/>
				<circle style="fill:#D5992F;" cx="182.427" cy="239.921" r="7.182"/>
				<circle style="fill:#D5992F;" cx="90.182" cy="239.921" r="7.182"/>
			</g>
			<rect x="85.283" y="397.902" style="fill:#D5992F;" width="101.818" height="12.121"/>
			<rect x="63.01" y="405.174" style="fill:#B36023;" width="146.364" height="45.152"/>
		</g>
		<g>
			<g>
				<rect x="263.241" y="321.622" style="fill:#2A4056;" width="78.91" height="128.628"/>
				<rect x="263.241" y="321.622" style="fill:#2A4056;" width="78.91" height="128.628"/>
				<rect x="263.241" y="321.622" style="fill:#39577F;" width="39.543" height="128.628"/>
				<rect x="272.786" y="336.167" style="fill:#D5992F;" width="20.453" height="99.539"/>
			</g>
			<g>
				<rect x="316.197" y="321.622" style="fill:#2A4056;" width="78.91" height="128.628"/>
				<rect x="316.197" y="321.622" style="fill:#873D2A;" width="78.91" height="128.628"/>
				<rect x="316.197" y="321.622" style="fill:#B64A30;" width="39.543" height="128.628"/>
				<rect x="325.742" y="336.167" style="fill:#D5992F;" width="20.453" height="99.539"/>
			</g>
			<g>
				<rect x="369.152" y="321.622" style="fill:#2A4056;" width="78.91" height="128.628"/>
				<rect x="369.152" y="321.622" style="fill:#636219;" width="78.91" height="128.628"/>
				<rect x="369.152" y="321.622" style="fill:#7D7C34;" width="39.543" height="128.628"/>
				<rect x="378.697" y="336.167" style="fill:#D5992F;" width="20.453" height="99.539"/>
			</g>
		</g>
		<g>
			<rect x="247.451" y="399.103" style="fill:#873D2A;" width="173.402" height="51.147"/>
			<rect x="190.751" y="399.103" style="fill:#B64A30;" width="173.402" height="51.147"/>
			<rect x="190.751" y="403.622" style="fill:#F4EDDF;" width="166.885" height="42.109"/>
			<rect x="190.751" y="422.005" style="fill:#DBCBB9;" width="166.885" height="23.726"/>
			<polygon style="fill:#D5992F;" points="319.059,445.671 309.592,441.23 300.19,445.671 300.19,417.703 319.059,417.703 			"/>
		</g>
		<g>
			<circle style="fill:#B36023;" cx="192.981" cy="330.909" r="46.585"/>
			
				<ellipse transform="matrix(0.7071 -0.7071 0.7071 0.7071 -177.4651 233.379)" style="fill:#D5992F;" cx="192.981" cy="330.909" rx="41.533" ry="41.533"/>
			<polygon style="fill:#B36023;" points="218.839,318.463 185.39,350.237 167.122,327.759 174.493,321.772 186.285,336.289 
				212.296,311.58 			"/>
		</g>
		<path style="fill:#D5992F;" d="M451.576,460.022H48.424c-2.686,0-4.863-2.177-4.863-4.863l0,0c0-2.686,2.177-4.863,4.863-4.863
			h403.151c2.685,0,4.863,2.177,4.863,4.863l0,0C456.438,457.845,454.261,460.022,451.576,460.022z"/>
	</g>
</g>
</svg>
